<?xml version="1.0" standalone="no"?>
<!DOCTYPE svg PUBLIC "-//W3C//DTD SVG 1.1//EN" "http://www.w3.org/Graphics/SVG/1.1/DTD/svg11.dtd" >
<svg xmlns="http://www.w3.org/2000/svg" xmlns:xlink="http://www.w3.org/1999/xlink" version="1.1">
<metadata>
Created by FontForge 20161013 at Tue Mar 12 13:04:55 2013
 By ,,,
Copyright (c) 1999, Design: Cornel Windlin &#38; Gilles Gavillet, published by www.lineto.com. All rights reserved.
</metadata>
<defs>
<font id="GravurCondensed-Thin" horiz-adv-x="560" >
  <font-face 
    font-family="Gravur Condensed Thin"
    font-weight="400"
    font-stretch="normal"
    units-per-em="1000"
    panose-1="0 0 0 0 0 0 0 0 0 0"
    ascent="750"
    descent="-250"
    x-height="488"
    cap-height="700"
    bbox="-40 -213 892 900"
    underline-thickness="20"
    underline-position="-161"
    unicode-range="U+0020-FB02"
  />
<missing-glyph horiz-adv-x="1000" 
 />
    <glyph glyph-name=".notdef" horiz-adv-x="1000" 
 />
    <glyph glyph-name=".null" horiz-adv-x="0" 
 />
    <glyph glyph-name="nonmarkingreturn" horiz-adv-x="333" 
 />
    <glyph glyph-name="space" unicode=" " horiz-adv-x="382" 
 />
    <glyph glyph-name="exclam" unicode="!" horiz-adv-x="259" 
d="M140 186q0 -10 -11 -10q-10 0 -10 10v504q0 10 10 10q11 0 11 -10v-504zM140 8q0 -11 -10 -11q-11 0 -11 11v39q0 10 10 10q11 0 11 -10v-39z" />
    <glyph glyph-name="quotedbl" unicode="&#x22;" horiz-adv-x="350" 
d="M127 497q0 -11 -11 -11q-10 0 -10 11v192q0 11 10 11q11 0 11 -11v-192zM245 497q0 -11 -11 -11q-10 0 -10 11v192q0 11 10 11q11 0 11 -11v-192z" />
    <glyph glyph-name="numbersign" unicode="#" horiz-adv-x="649" 
d="M411 456h-144l-34 -189h144zM596 466q0 -10 -11 -10h-153l-34 -189h152q11 0 11 -10q0 -11 -11 -11h-155l-43 -240q-2 -9 -11 -9h-2q-8 2 -8 10v2l43 237h-145l-43 -240q-2 -9 -10 -9h-2q-9 2 -9 10q0 2 1 2l42 237h-144q-11 0 -11 11q0 10 11 10h148l34 189h-148
q-10 0 -10 10q0 11 10 11h152l38 214q2 9 10 9h2q9 -2 9 -10v-2l-38 -211h144l39 214q2 9 10 9h2q8 -2 8 -10v-2l-38 -211h149q11 0 11 -11z" />
    <glyph glyph-name="dollar" unicode="$" horiz-adv-x="500" 
d="M434 162q0 -73 -50 -118t-126 -47v-71q0 -11 -11 -11q-10 0 -10 11v71q-73 2 -122 49.5t-49 125.5q0 7 5 9.5t10.5 0t5.5 -9.5q0 -71 44 -112.5t111 -41.5h11q69 0 114.5 39t45.5 105q0 46 -19 81.5t-48.5 58t-66 41t-73 36t-66 37.5t-48.5 52t-19 73q0 70 47 113.5
t117 45.5v79q0 11 10 11q11 0 11 -11v-79q69 -2 116.5 -43.5t47.5 -105.5q0 -7 -5 -9.5t-10.5 0t-5.5 8.5q0 57 -42.5 93t-105.5 36h-10q-63 0 -106 -38t-43 -101q0 -37 19 -66t48.5 -48t66 -36t73 -36.5t66 -43t48.5 -61.5t19 -87z" />
    <glyph glyph-name="percent" unicode="%" horiz-adv-x="736" 
d="M264 420q0 -39 -27 -67.5t-65 -28.5q-39 0 -66 28.5t-27 67.5v184q0 39 27 67.5t66 28.5q38 0 65 -28.5t27 -67.5v-184zM516 686l-283 -683q-3 -6 -9 -6q-11 0 -11 10q0 1 0.5 2t0.5 2l282 683q3 6 10 6q10 0 10 -10v-4zM243 420v184q0 31 -21 53t-50 22q-30 0 -51 -22
t-21 -53v-184q0 -31 21 -53t51 -22q29 0 50 22t21 53zM657 93q0 -39 -27 -67.5t-66 -28.5q-38 0 -65 28.5t-27 67.5v184q0 39 27 67.5t65 28.5q39 0 66 -28.5t27 -67.5v-184zM636 93v184q0 31 -21 53t-51 22q-29 0 -50.5 -22t-21.5 -53v-184q0 -31 21.5 -53t50.5 -22
q30 0 51 22t21 53z" />
    <glyph glyph-name="ampersand" unicode="&#x26;" horiz-adv-x="553" 
d="M363 540q0 39 -27.5 65t-68.5 26h-5q-36 0 -64 -25t-28 -64q0 -9 2 -19.5t7 -22.5t8.5 -20.5t11.5 -23t11.5 -19.5t13 -20.5t10.5 -17.5q78 53 98 74q31 33 31 67zM398 90l-170 280q-70 -46 -109 -91.5t-39 -105.5q0 -64 45.5 -109.5t109.5 -45.5h11q82 0 152 72zM509 -3
q-50 0 -99 75q-77 -75 -164 -75h-11q-72 0 -124 51.5t-52 124.5q0 47 25.5 89.5t55 67.5t77.5 58q-2 2 -9.5 14.5t-10 17t-10 16t-10.5 18t-8.5 17.5t-8 18.5t-5.5 17t-4.5 18.5t-1.5 17q0 50 33.5 80t79.5 30h5q45 0 81 -30t36 -82q0 -31 -20 -59.5t-43 -46t-65 -45.5
q-7 -5 -11 -7l168 -277q29 36 43 73q2 6 8.5 6.5t10.5 -4t1 -10.5q-15 -41 -52 -83q46 -69 85 -69q11 0 11 -10.5t-11 -10.5z" />
    <glyph glyph-name="quotesingle" unicode="'" horiz-adv-x="232" 
d="M127 489q0 -11 -11 -11q-10 0 -10 11v200q0 11 10 11q11 0 11 -11v-200z" />
    <glyph glyph-name="parenleft" unicode="(" horiz-adv-x="319" 
d="M279 -103q4 -2 0 -6q-11 -8 -20 -1q-83 65 -138 183t-55 256q0 135 53.5 252t135.5 183q10 7 20 0q3 -4 0 -7q-80 -63 -134 -178.5t-54 -249.5q0 -135 55.5 -252t136.5 -180z" />
    <glyph glyph-name="parenright" unicode=")" horiz-adv-x="357" 
d="M252 329q0 -138 -54.5 -256t-137.5 -183q-10 -7 -20 1q-4 4 0 6q81 64 137 180.5t56 251.5q0 133 -54.5 248.5t-134.5 179.5q-4 3 0 7q9 8 19 0q82 -66 135.5 -183t53.5 -252z" />
    <glyph glyph-name="asterisk" unicode="*" horiz-adv-x="393" 
d="M382 515q0 -11 -11 -11l-102 2h-57l29 -50l52 -87q6 -9 -4 -15q-9 -5 -14 4l-50 89l-29 50l-28 -50l-50 -89q-5 -9 -14 -4q-10 6 -4 15l52 87l29 50h-58l-102 -2q-10 0 -10 11q0 10 10 10l102 -1h58l-29 50l-52 87q-6 10 4 14q9 5 14 -3l50 -89l28 -50l29 50l50 89
q5 8 14 3q10 -4 4 -14l-52 -87l-29 -50h57l102 1q11 0 11 -10z" />
    <glyph glyph-name="plus" unicode="+" horiz-adv-x="481" 
d="M421 343q0 -11 -11 -11h-160v-159q0 -11 -10 -11q-11 0 -11 11v159h-159q-11 0 -11 11q0 10 11 10h159v160q0 11 11 11q10 0 10 -11v-160h160q11 0 11 -10z" />
    <glyph glyph-name="comma" unicode="," horiz-adv-x="196" 
d="M110 50q0 -58 -16 -92.5t-55 -77.5l-20 -22q-4 -4 -9 -4q-10 0 -10 10q0 5 4 9l20 21q36 38 50.5 69.5t14.5 86.5v40q0 12 11 12q10 0 10 -12v-40z" />
    <glyph glyph-name="hyphen" unicode="-" horiz-adv-x="425" 
d="M365 342q0 -11 -10 -11h-284q-12 0 -12 11q0 10 12 10h284q10 0 10 -10z" />
    <glyph glyph-name="period" unicode="." horiz-adv-x="153" 
d="M87 9q0 -12 -11 -12q-10 0 -10 12v42q0 11 10 11q11 0 11 -11v-42z" />
    <glyph glyph-name="slash" unicode="/" horiz-adv-x="334" 
d="M343 758q0 -3 -1 -5l-349 -859q-3 -7 -10 -7q-11 0 -11 10q0 3 1 5l349 858q3 8 10 8q11 0 11 -10z" />
    <glyph glyph-name="zero" unicode="0" horiz-adv-x="537" 
d="M419 142q0 -60 -42 -102.5t-102 -42.5h-12q-60 0 -102.5 42.5t-42.5 102.5v413q0 60 42.5 102.5t102.5 42.5h12q60 0 102 -42.5t42 -102.5v-413zM399 142v413q0 52 -36.5 88t-87.5 36h-12q-52 0 -88 -36t-36 -88v-413q0 -51 36 -87.5t88 -36.5h12q51 0 87.5 36.5
t36.5 87.5z" />
    <glyph glyph-name="one" unicode="1" horiz-adv-x="588" 
d="M339 7q0 -10 -10 -10q-11 0 -11 10v663l-102 -135q-3 -5 -8 -5q-11 0 -11 10q0 3 2 7l111 148q5 5 9 5h10q10 0 10 -11v-682z" />
    <glyph glyph-name="two" unicode="2" horiz-adv-x="530" 
d="M416 0h-302q-10 0 -10 10v8l4 10l261 429q25 42 25 85v15q0 51 -38 86.5t-90 35.5h-8q-51 0 -87.5 -36t-36.5 -87v-11q0 -7 -5 -9.5t-10 0t-5 9.5v11q0 61 42 102.5t102 41.5h8q60 0 104.5 -42t44.5 -102v-14q0 -49 -28 -96l-259 -425h288q10 0 10 -10.5t-10 -10.5z" />
    <glyph glyph-name="three" unicode="3" horiz-adv-x="534" 
d="M422 142q0 -60 -42.5 -102.5t-102.5 -42.5h-20q-60 0 -102.5 42.5t-42.5 102.5q0 7 5 9.5t10.5 0t5.5 -9.5q0 -51 36 -87.5t88 -36.5h20q51 0 87.5 36.5t36.5 87.5v74q0 88 -37 119t-119 31q-7 0 -10 5t0 10.5t10 5.5q24 0 40 1.5t40 9.5t39 22t26 43t11 69v25
q0 52 -34.5 87t-88.5 35h-9q-55 0 -90.5 -31t-35.5 -90q0 -7 -5.5 -9.5t-10.5 0t-5 9.5q0 67 43.5 104.5t103.5 37.5h8q59 0 102 -38.5t43 -104.5v-25q0 -123 -92 -154q92 -31 92 -162v-74z" />
    <glyph glyph-name="four" unicode="4" horiz-adv-x="527" 
d="M430 182q0 -10 -10 -10h-73v-165q0 -10 -10 -10t-10 10v165h-220q-10 0 -10 10v8q0 4 3 10l220 493q4 7 10 7q10 0 10 -11q0 -3 -1 -4l-221 -492h209v125q0 10 10 10t10 -10v-125h73q10 0 10 -11z" />
    <glyph glyph-name="five" unicode="5" horiz-adv-x="540" 
d="M417 142q0 -60 -42.5 -102.5t-102.5 -42.5h-12q-62 0 -99.5 39.5t-37.5 113.5q0 7 5.5 9.5t10.5 0t5 -9.5q0 -66 31.5 -99t84.5 -33h12q52 0 88 36t36 88v173q0 51 -36 87.5t-88 36.5h-12q-70 0 -106 -61q-6 -10 -15.5 -8.5t-9.5 12.5v305q0 10 10 10h244q11 0 11 -10.5
t-11 -10.5h-233v-269q41 53 110 53h12q60 0 102.5 -42.5t42.5 -102.5v-173z" />
    <glyph glyph-name="six" unicode="6" horiz-adv-x="537" 
d="M419 142q0 -60 -42 -102.5t-102 -42.5h-12q-60 0 -102.5 42.5t-42.5 102.5v413q0 60 42.5 102.5t102.5 42.5h12q53 0 92 -33.5t48 -84.5q1 -7 -3.5 -10.5t-10 -2t-6.5 8.5q-8 44 -41.5 72.5t-78.5 28.5h-12q-52 0 -88 -36.5t-36 -87.5v-203q42 70 124 70h12
q60 0 102 -42.5t42 -102.5v-135zM398 142v135q0 52 -36 88t-87 36h-12q-52 0 -88 -36t-36 -88v-135q0 -51 36 -87.5t88 -36.5h12q51 0 87 36.5t36 87.5z" />
    <glyph glyph-name="seven" unicode="7" horiz-adv-x="535" 
d="M421 679q0 -1 -2 -9l-209 -666q-1 -7 -10 -7q-11 0 -11 10q0 1 1 3l207 666h-262v-90q0 -11 -11 -11q-10 0 -10 11v101q0 10 10 10h286q11 0 11 -10v-8z" />
    <glyph glyph-name="eight" unicode="8" horiz-adv-x="537" 
d="M419 142q0 -60 -42 -102.5t-102 -42.5h-12q-60 0 -102.5 42.5t-42.5 102.5v98q0 45 25 81.5t65 52.5q-40 17 -65 53.5t-25 81.5v47q0 60 42.5 102t102.5 42h12q60 0 102 -42t42 -102v-47q0 -45 -25 -81.5t-65 -53.5q40 -16 65 -52.5t25 -81.5v-98zM398 509v47
q0 51 -36 87t-87 36h-12q-52 0 -88 -36t-36 -87v-47q0 -52 36 -88t88 -36h12q51 0 87 36t36 88zM398 142v98q0 52 -36 88t-87 36h-12q-52 0 -88 -36t-36 -88v-98q0 -51 36 -87.5t88 -36.5h12q51 0 87 36.5t36 87.5z" />
    <glyph glyph-name="nine" unicode="9" horiz-adv-x="537" 
d="M398 436v119q0 51 -36 87.5t-87 36.5h-12q-52 0 -88 -36.5t-36 -87.5v-119q0 -52 36 -88t88 -36h12q51 0 87 36t36 88zM419 142q0 -60 -42 -102.5t-102 -42.5h-12q-53 0 -92.5 33.5t-48.5 84.5q-1 7 3.5 10.5t10 2t6.5 -8.5q8 -44 41.5 -72.5t79.5 -28.5h12q51 0 87 36.5
t36 87.5v219q-19 -32 -52 -51t-71 -19h-12q-60 0 -102.5 42.5t-42.5 102.5v119q0 60 42.5 102.5t102.5 42.5h12q60 0 102 -42.5t42 -102.5v-413z" />
    <glyph glyph-name="colon" unicode=":" horiz-adv-x="153" 
d="M87 328q0 -12 -11 -12q-10 0 -10 12v42q0 12 10 12q11 0 11 -12v-42zM87 9q0 -12 -11 -12q-10 0 -10 12v42q0 11 10 11q11 0 11 -11v-42z" />
    <glyph glyph-name="semicolon" unicode=";" horiz-adv-x="196" 
d="M110 328q0 -12 -10 -12q-11 0 -11 12v42q0 12 11 12q10 0 10 -12v-42zM110 50q0 -58 -16 -92.5t-55 -77.5l-20 -22q-4 -4 -9 -4q-10 0 -10 10q0 5 4 9l20 21q36 38 50.5 69.5t14.5 86.5v40q0 12 11 12q10 0 10 -12v-40z" />
    <glyph glyph-name="less" unicode="&#x3c;" horiz-adv-x="332" 
d="M279 8q0 -11 -10 -11q-5 0 -9 5l-185 222q-9 12 -9 20t9 20l185 222q4 5 9 5q10 0 10 -11q0 -4 -3 -8l-186 -228l186 -228q3 -4 3 -8z" />
    <glyph glyph-name="equal" unicode="=" horiz-adv-x="528" 
d="M435 404q0 -10 -11 -10h-321q-11 0 -11 10t11 10h321q11 0 11 -10zM435 282q0 -10 -11 -10h-321q-11 0 -11 10q0 11 11 11h321q11 0 11 -11z" />
    <glyph glyph-name="greater" unicode="&#x3e;" horiz-adv-x="332" 
d="M266 244q0 -8 -9 -20l-185 -222q-2 -5 -9 -5q-10 0 -10 11q0 4 3 8l187 228l-187 228q-3 4 -3 8q0 11 10 11q7 0 9 -5l185 -222q9 -12 9 -20z" />
    <glyph glyph-name="question" unicode="?" horiz-adv-x="388" 
d="M322 519q0 -55 -56 -104l-21 -17.5t-19.5 -17t-14.5 -15t-13.5 -17.5t-8.5 -18.5t-6.5 -25t-1.5 -29.5v-78q0 -10 -11 -10q-10 0 -10 10v78q0 22 3.5 39.5t7.5 28t15.5 24.5t17 19.5t23.5 21t25 21.5q49 42 49 90v37q0 51 -36 87t-88 36h-6q-52 0 -88 -36t-36 -87v-14
q0 -11 -11 -11q-10 0 -10 11v14q0 60 42.5 102t102.5 42h6q60 0 102.5 -42t42.5 -102v-37zM181 9q0 -12 -11 -12q-10 0 -10 12v42q0 11 10 11q11 0 11 -11v-42z" />
    <glyph glyph-name="at" unicode="@" horiz-adv-x="938" 
d="M826 124q0 -61 -30 -94t-75 -33h-22q-33 0 -61 23.5t-40 63.5q-18 -39 -54.5 -63t-81.5 -24h-11q-64 0 -106.5 37t-42.5 101v5q0 24 8 44t25 34t33 23.5t42.5 17t42 11t43.5 8.5t37 7q58 11 58 61q-1 52 -36.5 88t-86.5 36h-8q-88 0 -120 -73q-5 -10 -14.5 -5.5
t-5.5 14.5q37 85 140 85h8q59 0 101.5 -40t42.5 -98v-217q0 -54 26.5 -85.5t60.5 -31.5h22q35 0 59 26t24 79v215q0 127 -90 217.5t-218 90.5h-54q-128 0 -218.5 -90t-90.5 -218v-194q0 -128 90.5 -218.5t218.5 -90.5h54q60 0 119 24q6 3 10.5 -1t4 -10t-6.5 -9
q-61 -25 -127 -25h-54q-137 0 -233.5 96.5t-96.5 233.5v194q0 137 96.5 233.5t233.5 96.5h54q136 0 233 -96.5t97 -233.5v-215zM591 147v142q-18 -18 -54 -25q-8 -2 -37 -7t-47 -8.5t-45.5 -13t-43.5 -21t-28.5 -31t-12.5 -43.5v-5q0 -54 36 -85t92 -31h11q53 0 91 37.5
t38 90.5z" />
    <glyph glyph-name="A" unicode="A" horiz-adv-x="548" 
d="M509 7q0 -10 -11 -10q-8 0 -9 7l-62 190h-305l-62 -190q-1 -7 -9 -7q-11 0 -11 10q0 2 1 3l221 683q4 7 13 7q10 0 12 -7l221 -683q1 -1 1 -3zM420 215l-145 449l-146 -449h291z" />
    <glyph glyph-name="B" unicode="B" horiz-adv-x="552" 
d="M473 175q0 -73 -51.5 -124t-124.5 -51h-168q-10 0 -10 10v677q0 10 10 10h168q73 0 120 -48t47 -121v-4q0 -57 -29.5 -101t-79.5 -62q52 -20 85 -67.5t33 -104.5v-14zM443 524v4q0 65 -41 106.5t-105 41.5h-157v-305h157q63 0 104.5 43.5t41.5 109.5zM452 175v14
q0 65 -45.5 113t-109.5 48h-157v-329h157q64 0 109.5 45t45.5 109z" />
    <glyph glyph-name="C" unicode="C" horiz-adv-x="512" 
d="M459 147q-9 -64 -58.5 -107t-115.5 -43h-10q-73 0 -124.5 51.5t-51.5 124.5v352q0 73 51.5 124t124.5 51h10q66 0 115.5 -43t58.5 -107q1 -7 -3.5 -10.5t-10 -1.5t-6.5 9q-8 57 -51.5 94.5t-102.5 37.5h-10q-64 0 -109.5 -45t-45.5 -109v-352q0 -65 45 -110t110 -45h10
q58 0 102 37.5t52 94.5q1 7 6.5 9t10 -1.5t3.5 -10.5z" />
    <glyph glyph-name="D" unicode="D" horiz-adv-x="580" 
d="M481 176q0 -73 -51 -124.5t-124 -51.5h-177q-10 0 -10 10v677q0 10 10 10h177q73 0 124 -51t51 -124v-346zM460 176v346q0 64 -45 109t-109 45h-166v-655h166q64 0 109 45.5t45 109.5z" />
    <glyph glyph-name="E" unicode="E" horiz-adv-x="520" 
d="M481 10q0 -10 -11 -10h-341q-10 0 -10 10v677q0 10 10 10h341q11 0 11 -10q0 -11 -11 -11h-330v-305h238q11 0 11 -10q0 -11 -11 -11h-238v-329h330q11 0 11 -11z" />
    <glyph glyph-name="F" unicode="F" horiz-adv-x="481" 
d="M481 687q0 -11 -11 -11h-330v-305h238q11 0 11 -10q0 -11 -11 -11h-238v-343q0 -10 -11 -10q-10 0 -10 10v679q0 11 10 11h341q11 0 11 -10z" />
    <glyph glyph-name="G" unicode="G" 
d="M461 173q0 -73 -51.5 -124.5t-124.5 -51.5h-10q-73 0 -124.5 51.5t-51.5 124.5v352q0 73 51.5 124t124.5 51h10q74 0 125 -51t51 -124q0 -11 -10 -11q-11 0 -11 11q0 64 -45 109t-110 45h-10q-64 0 -109.5 -45t-45.5 -109v-352q0 -65 45 -110t110 -45h10q65 0 110 45
t45 110v158h-170q-11 0 -11 10q0 11 11 11h180q11 0 11 -11v-168z" />
    <glyph glyph-name="H" unicode="H" horiz-adv-x="600" 
d="M481 7q0 -10 -10.5 -10t-10.5 10v343h-320v-343q0 -7 -5 -9.5t-10.5 0t-5.5 9.5v683q0 10 10.5 10t10.5 -10v-319h320v319q0 10 10.5 10t10.5 -10v-683z" />
    <glyph glyph-name="I" unicode="I" horiz-adv-x="285" 
d="M153 8q0 -11 -11 -11q-10 0 -10 11v681q0 11 10 11q11 0 11 -11v-681z" />
    <glyph glyph-name="J" unicode="J" horiz-adv-x="477" 
d="M358 172q0 -73 -51.5 -124t-124.5 -51h-10q-62 0 -110 39t-62 98v3q0 10 11 10q7 0 9 -8q12 -53 54 -87t98 -34h10q64 0 109.5 45t45.5 109v518q0 10 10 10q11 0 11 -10v-518z" />
    <glyph glyph-name="K" unicode="K" horiz-adv-x="520" 
d="M481 7q0 -10 -11 -10q-6 0 -9 6l-192 396l-129 -191v-201q0 -10 -11 -10q-10 0 -10 10v683q0 10 10 10q11 0 11 -10v-445l305 450q4 5 9 5q10 0 10 -10q0 -4 -2 -6l-180 -266l198 -406q1 -2 1 -5z" />
    <glyph glyph-name="L" unicode="L" horiz-adv-x="476" 
d="M426 0h-297q-10 0 -10 10v680q0 10 10.5 10t10.5 -10v-669h286q10 0 10 -10.5t-10 -10.5z" />
    <glyph glyph-name="M" unicode="M" horiz-adv-x="704" 
d="M585 7q0 -10 -11 -10q-10 0 -10 10v651l-197 -435q-3 -8 -15 -8t-15 8l-197 435v-651q0 -10 -11 -10q-10 0 -10 10v683q0 10 10 10h9q7 0 10 -6l204 -453l204 453q3 6 9 6h9q11 0 11 -10v-683z" />
    <glyph glyph-name="N" unicode="N" horiz-adv-x="575" 
d="M456 7q0 -10 -10 -10h-9q-6 0 -9 6l-288 655v-651q0 -10 -11 -10q-10 0 -10 10v683q0 10 10 10h9q7 0 10 -6l287 -655v651q0 10 11 10q10 0 10 -10v-683z" />
    <glyph glyph-name="O" unicode="O" 
d="M461 173q0 -73 -51.5 -124.5t-124.5 -51.5h-11q-73 0 -124 51.5t-51 124.5v352q0 73 51 124t124 51h11q73 0 124.5 -51t51.5 -124v-352zM440 173v352q0 64 -45.5 109t-109.5 45h-11q-64 0 -109 -45t-45 -109v-352q0 -64 45 -109.5t109 -45.5h11q65 0 110 45t45 110z" />
    <glyph glyph-name="P" unicode="P" horiz-adv-x="513" 
d="M480 522q0 -73 -51 -124t-124 -51h-165v-340q0 -10 -11 -10q-10 0 -10 10v680q0 10 10 10h176q73 0 124 -51t51 -124zM459 522q0 64 -45 109t-109 45h-165v-308h165q64 0 109 45t45 109z" />
    <glyph glyph-name="Q" unicode="Q" horiz-adv-x="571" 
d="M440 173v352q0 64 -45.5 109t-109.5 45h-11q-64 0 -109 -45t-45 -109v-352q0 -64 45 -109.5t109 -45.5h11q62 0 108 44l-44 44q-3 4 -3 7q0 11 11 11q4 0 7 -3l43 -44q33 42 33 96zM472 7q0 -10 -11 -10q-4 0 -7 3l-46 47q-52 -50 -123 -50h-11q-73 0 -124 51.5
t-51 124.5v352q0 73 51 124t124 51h11q73 0 124.5 -51t51.5 -124v-352q0 -61 -39 -111l47 -47q3 -5 3 -8z" />
    <glyph glyph-name="R" unicode="R" horiz-adv-x="554" 
d="M488 511q0 -71 -47.5 -121.5t-117.5 -54.5l154 -323q1 -2 1 -5q0 -10 -11 -10q-6 0 -9 6l-158 332h-160v-328q0 -10 -11 -10q-10 0 -10 10v680q0 10 10 10h183q73 0 124.5 -51t51.5 -124v-11zM467 511v11q0 64 -44.5 109t-108.5 45h-174v-320h174q64 0 108.5 45t44.5 110
z" />
    <glyph glyph-name="S" unicode="S" horiz-adv-x="500" 
d="M434 162q0 -74 -51.5 -119.5t-129.5 -45.5h-11q-75 0 -125.5 47.5t-50.5 127.5q0 7 5 9.5t10.5 0t5.5 -9.5q0 -71 44 -112.5t111 -41.5h11q69 0 114.5 39t45.5 105q0 46 -19 81.5t-48.5 58t-66 41t-73 36t-66 37.5t-48.5 52t-19 73q0 71 49 115t121 44h10q71 0 120 -42
t49 -107q0 -7 -5 -9.5t-10.5 0t-5.5 8.5q0 57 -42.5 93t-105.5 36h-10q-63 0 -106 -38t-43 -101q0 -37 19 -66t48.5 -48t66 -36t73 -36.5t66 -43t48.5 -61.5t19 -87z" />
    <glyph glyph-name="T" unicode="T" horiz-adv-x="383" 
d="M353 676h-151v-669q0 -7 -5 -9.5t-10.5 0t-5.5 9.5v669h-151q-10 0 -10 10.5t10 10.5h323q10 0 10 -10.5t-10 -10.5z" />
    <glyph glyph-name="U" unicode="U" horiz-adv-x="600" 
d="M481 173q0 -73 -51.5 -124.5t-124.5 -51.5h-10q-73 0 -124.5 51.5t-51.5 124.5v517q0 10 10 10q11 0 11 -10v-517q0 -64 45.5 -109.5t109.5 -45.5h10q64 0 109.5 45.5t45.5 109.5v517q0 10 10 10q11 0 11 -10v-517z" />
    <glyph glyph-name="V" unicode="V" horiz-adv-x="464" 
d="M411 687l-162 -678q-3 -12 -17 -12t-17 12l-162 678v3q0 10 11 10q6 0 9 -8l159 -661l159 661q1 8 9 8q11 0 11 -10v-3z" />
    <glyph glyph-name="W" unicode="W" horiz-adv-x="766" 
d="M713 690l-1 -1v-2l-143 -678q-3 -12 -16 -12q-14 0 -17 12l-152 657l-152 -657q-3 -12 -19 -12q-14 0 -17 12l-143 678v3q0 10 11 10q8 0 9 -8l140 -661l157 657q3 12 14 12t14 -12l155 -657l139 661q1 8 10 8q11 0 11 -10z" />
    <glyph glyph-name="X" unicode="X" horiz-adv-x="504" 
d="M438 7q0 -10 -11 -10q-5 0 -9 6l-166 335l-166 -335q-3 -6 -9 -6q-11 0 -11 10q0 3 1 5l174 349l-162 324q0 1 -0.5 2.5t-0.5 2.5q0 10 11 10q6 0 9 -6l154 -310l154 310q3 6 9 6q11 0 11 -10q0 -3 -1 -5l-161 -324l173 -349q1 -2 1 -5z" />
    <glyph glyph-name="Y" unicode="Y" horiz-adv-x="475" 
d="M422 690q0 -3 -1 -4l-173 -417v-262q0 -10 -10 -10q-11 0 -11 10v262l-173 417q-1 1 -1 4q0 10 11 10q6 0 9 -6l165 -396l164 396q3 6 9 6q11 0 11 -10z" />
    <glyph glyph-name="Z" unicode="Z" horiz-adv-x="456" 
d="M403 10q0 -10 -10 -10h-330q-10 0 -10 10v8l4 10l318 648h-293q-11 0 -11 11q0 10 11 10h306q11 0 11 -10v-8l-3 -11l-317 -647h314q10 0 10 -11z" />
    <glyph glyph-name="bracketleft" unicode="[" horiz-adv-x="322" 
d="M263 -104q0 -11 -11 -11h-89q-11 0 -11 11v793q0 11 11 11h89q11 0 11 -10q0 -11 -11 -11h-79v-773h79q11 0 11 -10z" />
    <glyph glyph-name="backslash" unicode="\" horiz-adv-x="334" 
d="M343 -103q0 -10 -11 -10q-7 0 -10 7l-349 858q-1 3 -1 5q0 4 3.5 7.5t7.5 3.5q7 0 10 -7l349 -859q1 -2 1 -5z" />
    <glyph glyph-name="bracketright" unicode="]" horiz-adv-x="322" 
d="M170 -104q0 -11 -11 -11h-89q-11 0 -11 11q0 10 11 10h79v773h-79q-11 0 -11 11q0 10 11 10h89q11 0 11 -11v-793z" />
    <glyph glyph-name="asciicircum" unicode="^" horiz-adv-x="494" 
d="M494 473q0 -11 -11 -11q-4 0 -7 3l-229 248l-228 -247q-4 -4 -8 -4q-11 0 -11 11q0 4 3 7l229 251q6 6 15 6t14 -6l230 -251q3 -3 3 -7z" />
    <glyph glyph-name="underscore" unicode="_" horiz-adv-x="582" 
d="M536 10q0 -10 -11 -10h-468q-11 0 -11 10q0 11 11 11h468q11 0 11 -11z" />
    <glyph glyph-name="grave" unicode="`" horiz-adv-x="518" 
d="M377 561q0 -2 -2 -6q-3 -5 -8 -5q-4 0 -6 1l-215 129q-5 3 -5 9q0 2 2 6q3 5 8 5q2 0 6 -2l215 -129q5 -3 5 -8z" />
    <glyph glyph-name="a" unicode="a" horiz-adv-x="484" 
d="M356 147v142q-20 -18 -54 -25q-9 -2 -37 -7t-47.5 -9t-46 -13t-43.5 -20.5t-29 -31t-12 -43.5v-6q0 -53 36 -84.5t92 -31.5h12q53 0 91 38t38 91zM438 7q0 -10 -10 -10q-57 0 -71 78q-17 -35 -52.5 -56.5t-77.5 -21.5h-12q-64 0 -106.5 37t-42.5 101v5q0 24 8 44t25 34
t33 23.5t42.5 17t42 11t43.5 8.5t37 7q59 13 59 60q0 54 -36 89.5t-88 35.5h-8q-87 0 -119 -73q-3 -7 -10 -7q-11 0 -11 11q0 3 1 4q38 86 139 86h8q60 0 102 -40.5t42 -98.5v-246q0 -31 13 -59.5t39 -28.5q10 0 10 -11z" />
    <glyph glyph-name="b" unicode="b" horiz-adv-x="516" 
d="M430 148q0 -62 -44.5 -106.5t-106.5 -44.5h-10q-40 0 -74 20t-55 53v-62q0 -11 -11 -11q-10 0 -10 11v681q0 11 10 11q11 0 11 -11v-271q20 34 54.5 53.5t74.5 19.5h10q62 0 106.5 -43.5t44.5 -105.5v-194zM409 148v194q0 53 -38.5 90.5t-91.5 37.5h-10
q-52 0 -90.5 -35.5t-38.5 -84.5v-210q0 -47 39 -84.5t90 -37.5h10q53 0 91.5 38.5t38.5 91.5z" />
    <glyph glyph-name="c" unicode="c" horiz-adv-x="463" 
d="M397 147q0 -62 -44 -106t-106 -44h-11q-62 0 -106 44t-44 106v194q0 62 44 106t106 44h11q62 0 106 -44t44 -106q0 -11 -11 -11t-11 11q0 53 -37.5 91t-90.5 38h-11q-53 0 -91 -38t-38 -91v-194q0 -53 38 -91t91 -38h11q53 0 90.5 38t37.5 91q0 11 11 11t11 -11z" />
    <glyph glyph-name="d" unicode="d" horiz-adv-x="514" 
d="M374 140v210q0 49 -38.5 84.5t-90.5 35.5h-11q-53 0 -91 -37.5t-38 -90.5v-194q0 -53 38 -91.5t91 -38.5h11q51 0 90 37.5t39 84.5zM395 8q0 -11 -11 -11q-10 0 -10 11v62q-21 -33 -55 -53t-74 -20h-11q-62 0 -106 44.5t-44 106.5v194q0 62 44 105.5t106 43.5h11
q85 0 129 -73v271q0 11 10 11q11 0 11 -11v-681z" />
    <glyph glyph-name="e" unicode="e" horiz-adv-x="469" 
d="M397 246q0 -11 -11 -11h-279v-88q0 -53 38 -91t91 -38h11q41 0 74.5 24.5t47.5 63.5q1 7 9 7q12 0 12 -10q0 -1 -0.5 -2t-0.5 -2q-15 -45 -54 -73.5t-88 -28.5h-11q-62 0 -106 44t-44 106v194q0 62 44.5 106t106.5 44h8q63 0 107.5 -42.5t44.5 -107.5v-95zM376 256v85
q0 53 -38 91t-91 38h-10q-53 0 -91.5 -38t-38.5 -91v-85h269z" />
    <glyph glyph-name="f" unicode="f" horiz-adv-x="284" 
d="M251 690q0 -11 -11 -11q-40 0 -66.5 -27.5t-26.5 -67.5v-116h87q11 0 11 -10q0 -11 -11 -11h-87v-440q0 -10 -10 -10q-11 0 -11 10v440h-56q-11 0 -11 11q0 10 11 10h56v116q0 49 32.5 82.5t81.5 33.5q11 0 11 -10z" />
    <glyph glyph-name="g" unicode="g" horiz-adv-x="499" 
d="M379 140v210q0 49 -38.5 84.5t-90.5 35.5h-11q-53 0 -91 -37.5t-38 -90.5v-194q0 -53 38 -91.5t91 -38.5h11q51 0 90 37.5t39 84.5zM400 -63q0 -62 -44 -106t-106 -44h-11q-54 0 -99.5 27.5t-59.5 73.5q-1 1 -1 4q0 10 11 10q7 0 10 -8q12 -38 51.5 -62t87.5 -24h11
q53 0 91 38t38 91v133q-21 -33 -55 -53t-74 -20h-11q-62 0 -106 44.5t-44 106.5v194q0 62 44 105.5t106 43.5h11q85 0 129 -73v62q0 11 10 11q11 0 11 -11v-543z" />
    <glyph glyph-name="h" unicode="h" horiz-adv-x="509" 
d="M430 8q0 -11 -11 -11q-10 0 -10 11v334q0 53 -38.5 90.5t-91.5 37.5h-10q-52 0 -90.5 -35.5t-38.5 -84.5v-342q0 -11 -11 -11q-10 0 -10 11v681q0 11 10 11q11 0 11 -11v-271q20 34 54.5 53.5t74.5 19.5h10q62 0 106.5 -43.5t44.5 -105.5v-334z" />
    <glyph glyph-name="i" unicode="i" horiz-adv-x="245" 
d="M133 646q0 -11 -11 -11q-10 0 -10 11v42q0 12 10 12q11 0 11 -12v-42zM133 8q0 -11 -11 -11q-10 0 -10 11v472q0 11 10 11q11 0 11 -11v-472z" />
    <glyph glyph-name="j" unicode="j" horiz-adv-x="228" 
d="M116 646q0 -11 -11 -11q-10 0 -10 11v42q0 12 10 12q11 0 11 -12v-42zM116 -107q0 -44 -24.5 -75t-67.5 -31h-6q-7 0 -10 5.5t0 10.5t10 5h6q44 0 64 45q7 17 7 40v581q0 7 5.5 9.5t10.5 0t5 -9.5v-581z" />
    <glyph glyph-name="k" unicode="k" horiz-adv-x="489" 
d="M443 480q0 -4 -3 -7l-170 -181l161 -279q2 -4 2 -6q0 -4 -3.5 -7t-7.5 -3q-6 0 -9 5l-159 274l-114 -122v-147q0 -10 -11 -10q-10 0 -10 10v683q0 10 10 10q11 0 11 -10v-505l284 302q3 4 8 4q4 0 7.5 -3.5t3.5 -7.5z" />
    <glyph glyph-name="l" unicode="l" horiz-adv-x="292" 
d="M239 7q0 -10 -11 -10q-49 0 -82.5 34t-33.5 83v575q0 11 10 11q11 0 11 -11v-575q0 -40 27.5 -68t67.5 -28q11 0 11 -11z" />
    <glyph glyph-name="m" unicode="m" horiz-adv-x="786" 
d="M700 8q0 -11 -10 -11t-10 11v332q0 54 -38.5 92t-91.5 38h-10q-53 0 -91.5 -38.5t-38.5 -91.5v-332q0 -11 -10 -11q-11 0 -11 11v332q0 54 -38 92t-91 38h-10q-53 0 -91.5 -35.5t-38.5 -84.5v-342q0 -11 -11 -11q-10 0 -10 11v472q0 10 10 10q11 0 11 -10v-62
q14 32 51 52.5t79 20.5h10q47 0 85 -26.5t55 -68.5q17 42 55 68.5t85 26.5h10q62 0 106 -44t44 -107v-332z" />
    <glyph glyph-name="n" unicode="n" horiz-adv-x="497" 
d="M411 8q0 -11 -11 -11q-10 0 -10 11v332q0 54 -38.5 92t-91.5 38h-10q-53 0 -91.5 -35.5t-38.5 -84.5v-342q0 -11 -11 -11q-10 0 -10 11v472q0 10 10 10q11 0 11 -10v-62q14 32 51 52.5t79 20.5h10q62 0 106.5 -44t44.5 -107v-332z" />
    <glyph glyph-name="o" unicode="o" horiz-adv-x="483" 
d="M397 147q0 -62 -44 -106t-106 -44h-11q-62 0 -106 44t-44 106v194q0 62 44 106t106 44h11q62 0 106 -44t44 -106v-194zM376 147v194q0 53 -38 91t-91 38h-11q-53 0 -91 -38t-38 -91v-194q0 -53 38 -91t91 -38h11q53 0 91 38t38 91z" />
    <glyph glyph-name="p" unicode="p" horiz-adv-x="496" 
d="M389 146v194q0 53 -38.5 91.5t-91.5 38.5h-10q-51 0 -90 -37.5t-39 -84.5v-210q0 -49 38.5 -84.5t90.5 -35.5h10q53 0 91.5 37.5t38.5 90.5zM410 146q0 -62 -44.5 -105.5t-106.5 -43.5h-10q-40 0 -74.5 19.5t-54.5 53.5v-272q0 -11 -11 -11q-10 0 -10 11v682q0 11 10 11
q11 0 11 -11v-62q21 33 55 53t74 20h10q62 0 106.5 -44.5t44.5 -106.5v-194z" />
    <glyph glyph-name="q" unicode="q" horiz-adv-x="496" 
d="M397 -202q0 -11 -11 -11q-10 0 -10 11v272q-44 -73 -129 -73h-11q-62 0 -106 43.5t-44 105.5v194q0 62 44 106.5t106 44.5h11q40 0 74 -20t55 -53v62q0 11 10 11q11 0 11 -11v-682zM376 138v210q0 47 -39 84.5t-90 37.5h-11q-53 0 -91 -38.5t-38 -91.5v-194
q0 -53 38 -90.5t91 -37.5h11q52 0 90.5 35.5t38.5 84.5z" />
    <glyph glyph-name="r" unicode="r" horiz-adv-x="334" 
d="M308 440q0 -10 -11 -10q-5 0 -8 5q-31 35 -81 35q-38 0 -63 -28t-25 -62v-372q0 -11 -11 -11q-10 0 -10 11v472q0 11 10 11q11 0 11 -11v-39q10 21 35.5 35.5t52.5 14.5q64 0 97 -44q3 -3 3 -7z" />
    <glyph glyph-name="s" unicode="s" horiz-adv-x="451" 
d="M392 131q0 -66 -47 -100t-113 -34h-9q-46 0 -94.5 28t-67.5 70q-3 6 0.5 11t10 4.5t9.5 -6.5q17 -36 59.5 -61t82.5 -25h9q60 0 99.5 29t39.5 84q0 31 -12 53.5t-35.5 35.5t-45 20t-54.5 13q-147 28 -147 112v9q0 57 43.5 87t101.5 30h6q72 0 134 -54q5 -5 3.5 -11
t-6.5 -7.5t-11 2.5q-57 49 -120 49h-6q-49 0 -87 -24t-38 -72v-9q0 -65 130 -93q31 -6 49.5 -11t43.5 -16t38.5 -24.5t23.5 -36.5t10 -53z" />
    <glyph glyph-name="t" unicode="t" horiz-adv-x="297" 
d="M234 -3q-49 0 -82.5 34t-33.5 83v354h-54q-7 0 -10 5t0 10.5t10 5.5h54v201q0 7 5 9.5t10.5 0t5.5 -9.5v-201h89q10 0 10 -10.5t-10 -10.5h-89v-354q0 -40 27.5 -68t67.5 -28q10 0 10 -10.5t-10 -10.5z" />
    <glyph glyph-name="u" unicode="u" horiz-adv-x="497" 
d="M398 8q0 -11 -11 -11q-10 0 -10 11v62q-14 -32 -51 -52.5t-79 -20.5h-11q-62 0 -106 44t-44 107v332q0 11 10 11q11 0 11 -11v-332q0 -54 38 -92t91 -38h11q53 0 91.5 35.5t38.5 84.5v342q0 11 10 11q11 0 11 -11v-472z" />
    <glyph glyph-name="v" unicode="v" horiz-adv-x="459" 
d="M399 477l-151 -466q-4 -14 -19 -14q-13 0 -18 14l-151 466q-1 1 -1 4q0 10 11 10q9 0 10 -7l149 -458l149 458q3 7 10 7q11 0 11 -10v-4z" />
    <glyph glyph-name="w" unicode="w" horiz-adv-x="684" 
d="M624 477l-132 -466q-3 -14 -18 -14q-13 0 -17 14l-115 440l-115 -440q-3 -14 -18 -14q-13 0 -17 14l-132 466q-1 1 -1 4q0 10 11 10q9 0 10 -7l129 -457l118 451q4 13 15 13q12 0 15 -13l117 -451l129 457q3 7 10 7q11 0 11 -10v-4z" />
    <glyph glyph-name="x" unicode="x" horiz-adv-x="445" 
d="M385 8q0 -11 -12 -11q-5 0 -8 5l-143 230l-143 -230q-3 -5 -9 -5q-4 0 -7.5 3.5t-3.5 7.5q0 2 2 6l148 238l-138 222q-1 2 -1 6q0 11 11 11q4 0 9 -5l132 -214l132 214q3 5 9 5q11 0 11 -11q0 -4 -2 -6l-138 -222l149 -238q2 -4 2 -6z" />
    <glyph glyph-name="y" unicode="y" horiz-adv-x="410" 
d="M364 477l-188 -582q-19 -58 -46.5 -83t-72.5 -25q-11 0 -11 10t11 10q67 0 98 95l49 147l-149 428q-1 1 -1 4q0 10 11 10q7 0 10 -7l140 -401l128 400q3 8 10 8q11 0 11 -10v-4z" />
    <glyph glyph-name="z" unicode="z" horiz-adv-x="424" 
d="M371 10q0 -10 -11 -10h-297q-4 0 -7 3.5t-3 7.5v6l4 11l283 439h-263q-10 0 -10 11q0 10 10 10h276q10 0 10 -11v-6l-3 -12l-281 -438h281q11 0 11 -11z" />
    <glyph glyph-name="braceleft" unicode="{" horiz-adv-x="337" 
d="M285 -93q0 -10 -11 -10q-37 0 -60 9t-34 28t-14 38t-3 50v235q0 8 -1.5 15t-3 11.5t-6 10t-7 8l-9.5 9.5l-9 9q-3 3 -7 6.5t-6 5.5t-4 4.5t-3 5.5t-1 6q0 5 1.5 8.5t3.5 5.5t7.5 7t8.5 8t8.5 8t7.5 7.5t6 7t6 8t4 9t3 11t1 12.5v195q0 31 3 50t14 38t34 28t60 9
q11 0 11 -10q0 -11 -11 -11q-57 0 -73.5 -23.5t-16.5 -80.5v-195q0 -18 -6.5 -33.5t-11.5 -22t-20.5 -20.5t-17.5 -16q3 -3 14 -12.5t16 -15t12.5 -15.5t10.5 -22t3 -26v-235q0 -57 16.5 -80.5t73.5 -23.5q11 0 11 -11z" />
    <glyph glyph-name="bar" unicode="|" horiz-adv-x="443" 
d="M232 -146q0 -11 -11 -11q-10 0 -10 11v903q0 11 10 11q11 0 11 -11v-903z" />
    <glyph glyph-name="braceright" unicode="}" horiz-adv-x="337" 
d="M232 348q0 -3 -1 -6t-3 -5.5t-4 -4.5t-6 -5.5t-7 -6.5t-8.5 -8t-7.5 -7.5t-6 -7t-6 -8t-4 -9t-3 -11t-1 -12.5v-235q0 -31 -3 -50t-14 -38t-34 -28t-60 -9q-11 0 -11 10q0 11 11 11q57 0 73.5 23.5t16.5 80.5v235q0 14 3 26t10.5 22t12.5 15.5t16 15t14 12.5
q-2 2 -17.5 16t-20.5 20.5t-11.5 22t-6.5 33.5v190q0 57 -16.5 80.5t-73.5 23.5q-11 0 -11 11q0 10 11 10q37 0 60 -9t34 -28t14 -38t3 -50v-190q0 -8 1.5 -15t3 -11.5t6 -10t7 -8l9.5 -9.5l9 -9q3 -3 7 -6.5t6 -5.5t4 -5t3 -5.5t1 -6.5z" />
    <glyph glyph-name="asciitilde" unicode="~" horiz-adv-x="494" 
d="M397 547q-39 -27 -82 -27q-27 0 -75 15.5t-66 15.5q-33 0 -62 -31q-6 -6 -13 -5t-8.5 6.5t3.5 12.5q34 38 83 38q21 0 68 -15.5t70 -15.5q42 0 69 24q6 5 12.5 2.5t7 -8.5t-6.5 -12z" />
    <glyph glyph-name="exclamdown" unicode="&#xa1;" horiz-adv-x="259" 
d="M140 650q0 -10 -11 -10q-10 0 -10 10v39q0 11 10 11q11 0 11 -11v-39zM140 7q0 -10 -11 -10q-10 0 -10 10v504q0 10 10 10q11 0 11 -10v-504z" />
    <glyph glyph-name="cent" unicode="&#xa2;" horiz-adv-x="483" 
d="M403 147q0 -61 -42.5 -104.5t-103.5 -45.5v-53q0 -11 -10 -11q-11 0 -11 11v53q-60 2 -102 45.5t-42 104.5v194q0 61 42 104.5t102 45.5v66q0 10 11 10q10 0 10 -10v-66q61 -2 103.5 -45.5t42.5 -104.5q0 -11 -11 -11t-11 11q0 53 -37.5 91t-90.5 38h-11q-53 0 -91 -38
t-38 -91v-194q0 -53 38 -91t91 -38h11q53 0 90.5 38t37.5 91q0 11 11 11t11 -11z" />
    <glyph glyph-name="sterling" unicode="&#xa3;" horiz-adv-x="471" 
d="M464 118q0 -61 -44 -89.5t-106 -28.5h-240q-10 0 -12 12t6 17q152 80 70 303h-102q-10 0 -10 10.5t10 10.5h93q-2 6 -9.5 25.5t-11 29t-10.5 28t-10.5 30.5t-7.5 27t-5.5 27t-1.5 22v14q0 59 45 101.5t105 42.5h17q55 0 98 -36.5t48 -89.5q1 -6 -4 -9.5t-10.5 -1.5
t-6.5 9q-5 44 -41.5 75.5t-83.5 31.5h-17q-51 0 -90 -36t-39 -87v-14q0 -44 58 -189h127q11 0 11 -10.5t-11 -10.5h-119q21 -57 26.5 -113t-16.5 -112.5t-77 -85.5h221q6 0 15.5 0.5t31.5 6t39 14.5t30.5 29t13.5 47q0 10 10 10t10 -10z" />
    <glyph glyph-name="yen" unicode="&#xa5;" horiz-adv-x="475" 
d="M422 690q0 -3 -1 -4l-167 -403h122q10 0 10 -11q0 -10 -10 -10h-128v-73h128q10 0 10 -11q0 -10 -10 -10h-128v-161q0 -10 -10 -10q-11 0 -11 10v161h-128q-11 0 -11 10q0 11 11 11h128v73h-128q-11 0 -11 10q0 11 11 11h122l-167 403q-1 1 -1 4q0 10 11 10q6 0 9 -6
l165 -396l164 396q3 6 9 6q11 0 11 -10z" />
    <glyph glyph-name="brokenbar" unicode="&#xa6;" horiz-adv-x="272" 
d="M146 418q0 -11 -11 -11q-10 0 -10 11v271q0 11 10 11q11 0 11 -11v-271zM146 8q0 -11 -11 -11q-10 0 -10 11v271q0 11 10 11q11 0 11 -11v-271z" />
    <glyph glyph-name="section" unicode="&#xa7;" horiz-adv-x="478" 
d="M364 258q0 42 -35 71l-85 72q-1 0 -5 0.5t-7 0.5q-23 0 -49.5 -12.5t-40.5 -29.5q-26 -32 -26 -65q0 -39 34 -69l86 -74q3 -1 10 -1q23 0 51.5 12t41.5 29q25 31 25 66zM385 258q0 -44 -30 -79q-15 -19 -43.5 -33t-56.5 -14l58 -53q34 -31 49.5 -55.5t15.5 -62.5
q0 -63 -42.5 -97t-101.5 -34q-57 0 -99.5 30.5t-42.5 82.5q0 10 11 10q10 0 10 -10q0 -42 36 -67t85 -25q50 0 86.5 28.5t36.5 81.5q0 34 -13.5 56t-43.5 48l-165 147q-40 36 -40 81q0 41 31 81q16 19 43.5 33t51.5 14h2q-10 9 -30 26.5t-27.5 24.5t-20.5 21.5t-18 26
t-9 28.5t-4 37q0 46 32 80.5t96 34.5q52 0 85.5 -32t37.5 -76v-2q0 -10 -11 -10q-9 0 -10 10q-4 41 -33.5 65t-69.5 24q-52 0 -79.5 -28t-27.5 -66q0 -39 16.5 -63.5t65.5 -67.5l129 -113q40 -34 40 -83z" />
    <glyph glyph-name="dieresis" unicode="&#xa8;" horiz-adv-x="524" 
d="M173 646q0 -11 -11 -11q-10 0 -10 11v42q0 12 10 12q11 0 11 -12v-42zM372 646q0 -11 -10 -11q-11 0 -11 11v42q0 12 11 12q10 0 10 -12v-42z" />
    <glyph glyph-name="copyright" unicode="&#xa9;" horiz-adv-x="939" 
d="M840 329q0 -154 -108 -262t-263 -108q-153 0 -261.5 108.5t-108.5 261.5q0 154 108.5 262.5t261.5 108.5q155 0 263 -108t108 -263zM819 329q0 146 -101.5 248t-248.5 102q-144 0 -246.5 -102.5t-102.5 -247.5t102.5 -247t246.5 -102q147 0 248.5 102t101.5 247zM587 196
q0 -1 -1 -2q-5 -40 -36 -66.5t-72 -26.5h-6q-46 0 -78 32t-32 77v235q0 45 32 77t78 32h6q41 0 72 -27t36 -67v-1q0 -10 -10 -10q-9 0 -10 8q-5 33 -29.5 54.5t-58.5 21.5h-6q-37 0 -63 -25.5t-26 -62.5v-235q0 -37 26 -62.5t63 -25.5h6q34 0 58.5 21.5t29.5 53.5q2 9 10 9
q11 0 11 -10z" />
    <glyph glyph-name="ordfeminine" unicode="&#xaa;" horiz-adv-x="341" 
d="M226 483v79q-13 -8 -53 -16t-66.5 -22.5t-26.5 -44.5v-3q0 -29 19 -46t50 -17h7q29 0 49.5 20.5t20.5 49.5zM281 402q0 -10 -10 -10q-19 0 -31 11t-12 26v1q-26 -38 -72 -38h-7q-36 0 -63 22t-27 62v3q0 29 18.5 48t40 25t51.5 13t41 12q16 7 16 26q0 34 -19.5 55
t-47.5 21h-5q-46 0 -65 -40q-3 -6 -9 -6q-11 0 -11 10q0 3 1 5q23 52 84 52h5q35 0 61.5 -27.5t26.5 -66.5v-155q0 -21 5 -29.5t18 -8.5q11 0 11 -11z" />
    <glyph glyph-name="guillemotleft" unicode="&#xab;" horiz-adv-x="604" 
d="M276 81q0 -7 -3 -9q-3 -3 -9 -3q-4 0 -11 7l-181 170q-6 6 -6 17t6 17l181 170q7 7 11 7q6 0 9 -3q3 -2 3 -9q0 -3 -9 -10l-183 -172l183 -172q9 -7 9 -10zM472 81q0 -7 -2 -10q-2 -2 -9 -2q-1 0 -10 7l-182 170q-7 7 -7 17t7 17l182 170q9 7 10 7q7 0 9 -2q2 -3 2 -10
q0 -3 -7 -10l-184 -172l184 -172q7 -7 7 -10z" />
    <glyph glyph-name="logicalnot" unicode="&#xac;" horiz-adv-x="436" 
d="M337 258q0 -10 -10 -10q-11 0 -11 10v92h-232q-11 0 -11 11q0 10 11 10h243q10 0 10 -10v-103z" />
    <glyph glyph-name="registered" unicode="&#xae;" horiz-adv-x="939" 
d="M840 329q0 -154 -108 -262t-263 -108q-153 0 -261.5 108.5t-108.5 261.5q0 154 108.5 262.5t261.5 108.5q155 0 263 -108t108 -263zM819 329q0 146 -101.5 248t-248.5 102q-144 0 -246.5 -102.5t-102.5 -247.5t102.5 -247t246.5 -102q147 0 248.5 102t101.5 247zM600 435
q0 -44 -29 -77t-71 -37l95 -205q1 -2 1 -5q0 -10 -11 -10q-7 0 -9 6l-98 213h-89v-209q0 -10 -11 -10q-10 0 -10 10v429q0 14 14 14h107q46 0 78.5 -33.5t32.5 -79.5v-6zM579 435v6q0 37 -26.5 64.5t-63.5 27.5h-100v-192h99q40 0 65.5 27.5t25.5 66.5z" />
    <glyph glyph-name="macron" unicode="&#xaf;" horiz-adv-x="482" 
d="M416 690q0 -11 -11 -11h-328q-11 0 -11 11q0 10 11 10h328q11 0 11 -10z" />
    <glyph glyph-name="degree" unicode="&#xb0;" horiz-adv-x="285" 
d="M236 609q0 -38 -26.5 -64.5t-64.5 -26.5t-64.5 26.5t-26.5 64.5t26.5 64.5t64.5 26.5t64.5 -26.5t26.5 -64.5zM216 609q0 29 -21 50t-50 21t-50 -21t-21 -50t21 -50t50 -21t50 21t21 50z" />
    <glyph glyph-name="plusminus" unicode="&#xb1;" 
d="M461 313q0 -10 -11 -10h-160v-160q0 -11 -10 -11q-11 0 -11 11v160h-159q-11 0 -11 10q0 11 11 11h159v159q0 11 11 11q10 0 10 -11v-159h160q11 0 11 -11zM429 10q0 -10 -10 -10h-279q-11 0 -11 10q0 11 11 11h279q10 0 10 -11z" />
    <glyph glyph-name="twosuperior" unicode="&#xb2;" horiz-adv-x="409" 
d="M304 295q0 -10 -10 -10h-177q-11 0 -11 10v8q0 6 7 16l146 243q14 26 14 48v8q0 25 -19.5 43t-45.5 18h-9q-26 0 -44 -18t-18 -43v-7q0 -10 -11 -10q-10 0 -10 10v7q0 34 24 58t59 24h9q35 0 60.5 -24t25.5 -58v-8q0 -28 -18 -58l-148 -246h166q10 0 10 -11z" />
    <glyph glyph-name="threesuperior" unicode="&#xb3;" horiz-adv-x="388" 
d="M283 368q0 -34 -24.5 -58.5t-58.5 -24.5h-11q-35 0 -59 24.5t-24 58.5q0 11 11 11q10 0 10 -11q0 -26 18.5 -44t43.5 -18h11q26 0 44 18t18 44v49q0 46 -18 60.5t-61 14.5q-11 0 -11 11q0 10 11 10q18 0 28.5 1.5t24 8t20 22.5t6.5 41v32q0 28 -19 44.5t-46 16.5
q-26 0 -45 -16t-19 -45q0 -10 -11 -10q-10 0 -10 10q0 39 25 60.5t60 21.5t60.5 -22t25.5 -60v-32q0 -66 -41 -83q41 -17 41 -87v-48z" />
    <glyph glyph-name="acute" unicode="&#xb4;" horiz-adv-x="518" 
d="M377 689q0 -6 -5 -9l-215 -129q-2 -1 -6 -1q-5 0 -8 5q-2 4 -2 6q0 5 5 8l215 129q4 2 6 2q5 0 8 -5q2 -4 2 -6z" />
    <glyph glyph-name="paragraph" unicode="&#xb6;" horiz-adv-x="488" 
d="M369 -69q0 -10 -11 -10q-10 0 -10 10v745h-78v-745q0 -10 -11 -10q-10 0 -10 10v416h-47q-73 0 -124.5 51t-51.5 124t51.5 124t124.5 51h156q11 0 11 -11v-755zM249 368v308h-47q-64 0 -109.5 -45t-45.5 -109t45.5 -109t109.5 -45h47z" />
    <glyph glyph-name="periodcentered" unicode="&#xb7;" horiz-adv-x="166" 
d="M94 341q0 -12 -11 -12q-10 0 -10 12v42q0 11 10 11q11 0 11 -11v-42z" />
    <glyph glyph-name="cedilla" unicode="&#xb8;" horiz-adv-x="548" 
d="M346 -89q0 -28 -20 -47.5t-48 -19.5h-11q-22 0 -40 13.5t-24 34.5q-3 10 7 13t13 -7q4 -14 16 -23.5t28 -9.5h11q19 0 33 13.5t14 32.5v11q0 20 -13.5 33.5t-33.5 13.5h-5q-10 0 -10 10v79q0 10 10 10q11 0 11 -10v-69q26 -2 44 -21.5t18 -45.5v-11z" />
    <glyph glyph-name="onesuperior" unicode="&#xb9;" horiz-adv-x="318" 
d="M213 295q0 -10 -10 -10q-11 0 -11 10v373l-67 -74q-3 -4 -8 -4q-11 0 -11 10q0 5 2 7l74 83q5 10 15 10h6q10 0 10 -11v-394z" />
    <glyph glyph-name="ordmasculine" unicode="&#xba;" horiz-adv-x="307" 
d="M247 483q0 -37 -26.5 -64t-64.5 -27h-6q-38 0 -64.5 27t-26.5 64v126q0 38 26.5 64.5t64.5 26.5h6q38 0 64.5 -26.5t26.5 -64.5v-126zM226 483v126q0 29 -20.5 49.5t-49.5 20.5h-6q-29 0 -49.5 -20.5t-20.5 -49.5v-126q0 -29 21 -49.5t49 -20.5h6q29 0 49.5 20.5
t20.5 49.5z" />
    <glyph glyph-name="guillemotright" unicode="&#xbb;" horiz-adv-x="604" 
d="M342 263q0 -10 -7 -17l-182 -170q-9 -7 -10 -7q-7 0 -9 2q-2 3 -2 10q0 3 7 10l184 172l-184 172q-7 7 -7 10q0 7 2 10q2 2 9 2q1 0 10 -7l182 -170q7 -7 7 -17zM538 263q0 -11 -6 -17l-181 -170q-7 -7 -11 -7q-6 0 -9 3q-3 2 -3 9q0 3 9 10l183 172l-183 172q-9 7 -9 10
q0 7 3 9q3 3 9 3q4 0 11 -7l181 -170q6 -6 6 -17z" />
    <glyph glyph-name="onequarter" unicode="&#xbc;" horiz-adv-x="877" 
d="M213 295q0 -10 -10 -10q-11 0 -11 10v373l-67 -74q-3 -4 -8 -4q-11 0 -11 10q0 5 2 7l74 83q5 10 15 10h6q10 0 10 -11v-394zM620 690q0 -4 -1 -6l-410 -682q-3 -5 -8 -5q-11 0 -11 10q0 5 1 6l409 682q5 5 9 5q11 0 11 -10zM772 121q0 -11 -11 -11h-64v-102
q0 -11 -10 -11t-10 11v102h-127q-15 0 -15 13q0 4 3 10l135 273q3 6 10 6q11 0 11 -10v-2l-1 -2l-133 -267h117v67q0 10 10 10t10 -10v-67h64q11 0 11 -10z" />
    <glyph glyph-name="onehalf" unicode="&#xbd;" horiz-adv-x="855" 
d="M213 295q0 -10 -10 -10q-11 0 -11 10v373l-67 -74q-3 -4 -8 -4q-11 0 -11 10q0 5 2 7l74 83q5 10 15 10h6q10 0 10 -11v-394zM620 690q0 -4 -1 -6l-410 -682q-3 -5 -8 -5q-11 0 -11 10q0 5 1 6l409 682q5 5 9 5q11 0 11 -10zM750 10q0 -10 -10 -10h-177q-11 0 -11 11v7
q0 6 7 16l146 244q14 25 14 47v8q0 25 -19.5 43t-45.5 18h-9q-26 0 -44 -18t-18 -43v-7q0 -10 -11 -10q-10 0 -10 10v7q0 34 24 58t59 24h9q35 0 60.5 -24t25.5 -58v-8q0 -28 -18 -58l-148 -246h166q10 0 10 -11z" />
    <glyph glyph-name="threequarters" unicode="&#xbe;" horiz-adv-x="948" 
d="M691 690q0 -4 -1 -6l-409 -682q-5 -5 -9 -5q-11 0 -11 10q0 5 1 6l410 682q2 5 8 5q11 0 11 -10zM843 121q0 -11 -11 -11h-63v-102q0 -11 -11 -11q-10 0 -10 11v102h-127q-14 0 -14 13q0 6 2 10l135 273q4 6 10 6q11 0 11 -10q0 -3 -1 -4l-132 -267h116v67q0 10 10 10
q11 0 11 -10v-67h63q11 0 11 -10zM283 368q0 -34 -24.5 -58.5t-58.5 -24.5h-11q-35 0 -59 24.5t-24 58.5q0 11 11 11q10 0 10 -11q0 -26 18.5 -44t43.5 -18h11q26 0 44 18t18 44v49q0 46 -18 60.5t-61 14.5q-11 0 -11 11q0 10 11 10q18 0 28.5 1.5t24 8t20 22.5t6.5 41v32
q0 28 -19 44.5t-46 16.5q-26 0 -45 -16t-19 -45q0 -10 -11 -10q-10 0 -10 10q0 39 25 60.5t60 21.5t60.5 -22t25.5 -60v-32q0 -66 -41 -83q41 -17 41 -87v-48z" />
    <glyph glyph-name="questiondown" unicode="&#xbf;" horiz-adv-x="388" 
d="M228 646q0 -11 -10 -11q-11 0 -11 11v42q0 12 11 12q10 0 10 -12v-42zM362 141q0 -60 -42.5 -102t-102.5 -42h-6q-60 0 -102.5 42t-42.5 102v37q0 55 56 104l21 17.5t19.5 17t14.5 15t13.5 17.5t8.5 18.5t6.5 25t1.5 29.5v78q0 10 11 10q10 0 10 -10v-78q0 -22 -4 -39.5
t-7 -28t-15 -25t-16.5 -19t-24 -21t-25.5 -21.5q-49 -44 -49 -90v-37q0 -51 36 -87t88 -36h6q52 0 88 36t36 87v14q0 11 11 11q10 0 10 -11v-14z" />
    <glyph glyph-name="Agrave" unicode="&#xc0;" horiz-adv-x="548" 
d="M411 760q0 -4 -1 -5q-4 -6 -9 -6q-2 0 -6 2l-214 129q-6 3 -6 9q0 3 2 5q3 5 9 5q4 0 6 -1l214 -129q5 -3 5 -9zM509 7q0 -10 -11 -10q-8 0 -9 7l-62 190h-305l-62 -190q-1 -7 -9 -7q-11 0 -11 10q0 2 1 3l221 683q4 7 13 7q10 0 12 -7l221 -683q1 -1 1 -3zM420 215
l-145 449l-146 -449h291z" />
    <glyph glyph-name="Aacute" unicode="&#xc1;" horiz-adv-x="515" 
d="M383 889q0 -6 -5 -9l-214 -129q-4 -2 -6 -2q-5 0 -9 6q-1 1 -1 5q0 6 5 9l214 129q4 2 6 2q5 0 9 -6q1 -1 1 -5zM509 7q0 -10 -11 -10q-8 0 -9 7l-62 190h-305l-62 -190q-1 -7 -9 -7q-11 0 -11 10q0 2 1 3l221 683q4 7 13 7q10 0 12 -7l221 -683q1 -1 1 -3zM420 215
l-145 449l-146 -449h291z" />
    <glyph glyph-name="Acircumflex" unicode="&#xc2;" horiz-adv-x="548" 
d="M401 812q0 -4 -3.5 -8.5t-7.5 -4.5q-2 0 -6 2l-109 73l-109 -73q-6 -2 -7 -2q-4 0 -7.5 4.5t-3.5 8.5q0 5 5 8l113 77l9 3q1 0 4 -1.5t4 -1.5l113 -77q5 -3 5 -8zM509 7q0 -10 -11 -10q-8 0 -9 7l-62 190h-305l-62 -190q-1 -7 -9 -7q-11 0 -11 10q0 2 1 3l221 683
q4 7 13 7q10 0 12 -7l221 -683q1 -1 1 -3zM420 215l-145 449l-146 -449h291z" />
    <glyph glyph-name="Atilde" unicode="&#xc3;" horiz-adv-x="548" 
d="M427 875q-39 -27 -83 -27q-26 0 -74 15.5t-66 15.5q-31 0 -62 -31q-7 -6 -14 -5t-8 6.5t4 12.5q35 38 82 38q22 0 69 -15.5t70 -15.5q37 0 69 24q6 5 12.5 2.5t7 -8.5t-6.5 -12zM509 7q0 -10 -11 -10q-8 0 -9 7l-62 190h-305l-62 -190q-1 -7 -9 -7q-11 0 -11 10q0 2 1 3
l221 683q4 7 13 7q10 0 12 -7l221 -683q1 -1 1 -3zM420 215l-145 449l-146 -449h291z" />
    <glyph glyph-name="Adieresis" unicode="&#xc4;" horiz-adv-x="548" 
d="M183 846q0 -12 -10 -12q-11 0 -11 12v42q0 12 11 12q10 0 10 -12v-42zM383 846q0 -12 -11 -12q-10 0 -10 12v42q0 12 10 12q11 0 11 -12v-42zM509 7q0 -10 -11 -10q-8 0 -9 7l-62 190h-305l-62 -190q-1 -7 -9 -7q-11 0 -11 10q0 2 1 3l221 683q4 7 13 7q10 0 12 -7
l221 -683q1 -1 1 -3zM420 215l-145 449l-146 -449h291z" />
    <glyph glyph-name="Aring" unicode="&#xc5;" horiz-adv-x="548" 
d="M345 829q0 -29 -20.5 -49.5t-49.5 -20.5t-50 20.5t-21 49.5t21 50t50 21t49.5 -21t20.5 -50zM324 829q0 20 -14.5 35t-34.5 15q-21 0 -35.5 -15t-14.5 -35t14.5 -34.5t35.5 -14.5q20 0 34.5 14.5t14.5 34.5zM509 7q0 -10 -11 -10q-8 0 -9 7l-62 190h-305l-62 -190
q-1 -7 -9 -7q-11 0 -11 10q0 2 1 3l221 683q4 7 13 7q10 0 12 -7l221 -683q1 -1 1 -3zM420 215l-145 449l-146 -449h291z" />
    <glyph glyph-name="AE" unicode="&#xc6;" horiz-adv-x="714" 
d="M364 241v435h-84l-143 -435h227zM675 10q0 -10 -11 -10h-289q-11 0 -11 10v210h-233l-71 -216q-1 -7 -9 -7q-11 0 -11 10q0 2 1 3l221 680q4 7 13 7h389q11 0 11 -10q0 -11 -11 -11h-279v-305h188q10 0 10 -10q0 -11 -10 -11h-188v-329h279q11 0 11 -11z" />
    <glyph glyph-name="Ccedilla" unicode="&#xc7;" horiz-adv-x="512" 
d="M459 147q-9 -63 -57.5 -106t-114.5 -44v-45q26 -2 44 -21.5t18 -45.5v-11q0 -28 -19.5 -47.5t-47.5 -19.5h-11q-23 0 -40.5 13.5t-24.5 34.5q-2 10 7.5 13t12.5 -7q5 -14 17 -23.5t28 -9.5h11q19 0 32.5 13.5t13.5 32.5v11q0 19 -13.5 32.5t-32.5 13.5h-5q-10 0 -10 11
v55q-71 4 -119.5 55t-48.5 121v352q0 73 51.5 124t124.5 51h10q66 0 115.5 -43t58.5 -107q1 -7 -3.5 -10.5t-10 -1.5t-6.5 9q-8 57 -51.5 94.5t-102.5 37.5h-10q-64 0 -109.5 -45t-45.5 -109v-352q0 -65 45 -110t110 -45h10q58 0 102 37.5t52 94.5q1 7 6.5 9t10 -1.5
t3.5 -10.5z" />
    <glyph glyph-name="Egrave" unicode="&#xc8;" horiz-adv-x="520" 
d="M418 760q0 -4 -1 -5q-4 -6 -9 -6q-2 0 -6 2l-214 129q-6 3 -6 9q0 3 2 5q3 5 9 5q4 0 6 -1l214 -129q5 -3 5 -9zM481 10q0 -10 -11 -10h-341q-10 0 -10 10v677q0 10 10 10h341q11 0 11 -10q0 -11 -11 -11h-330v-305h238q11 0 11 -10q0 -11 -11 -11h-238v-329h330
q11 0 11 -11z" />
    <glyph glyph-name="Eacute" unicode="&#xc9;" horiz-adv-x="520" 
d="M404 889q0 -7 -5 -9l-214 -129q-4 -2 -6 -2q-5 0 -9 6q-1 1 -1 5q0 6 5 9l214 129q4 2 6 2q5 0 9 -6q1 -1 1 -5zM481 10q0 -10 -11 -10h-341q-10 0 -10 10v677q0 10 10 10h341q11 0 11 -10q0 -11 -11 -11h-330v-305h238q11 0 11 -10q0 -11 -11 -11h-238v-329h330
q11 0 11 -11z" />
    <glyph glyph-name="Ecircumflex" unicode="&#xca;" horiz-adv-x="520" 
d="M419 812q0 -4 -3.5 -8.5t-7.5 -4.5q-1 0 -7 2l-108 73l-110 -73q-4 -2 -6 -2q-4 0 -7.5 4.5t-3.5 8.5q0 5 5 8l113 77q1 0 4 1.5t4 1.5l9 -3l113 -77q5 -3 5 -8zM481 10q0 -10 -11 -10h-341q-10 0 -10 10v677q0 10 10 10h341q11 0 11 -10q0 -11 -11 -11h-330v-305h238
q11 0 11 -10q0 -11 -11 -11h-238v-329h330q11 0 11 -11z" />
    <glyph glyph-name="Edieresis" unicode="&#xcb;" horiz-adv-x="520" 
d="M202 846q0 -12 -10 -12q-11 0 -11 12v42q0 12 11 12q10 0 10 -12v-42zM402 846q0 -12 -11 -12q-10 0 -10 12v42q0 12 10 12q11 0 11 -12v-42zM481 10q0 -10 -11 -10h-341q-10 0 -10 10v677q0 10 10 10h341q11 0 11 -10q0 -11 -11 -11h-330v-305h238q11 0 11 -10
q0 -11 -11 -11h-238v-329h330q11 0 11 -11z" />
    <glyph glyph-name="Igrave" unicode="&#xcc;" horiz-adv-x="216" 
d="M226 760q0 -3 -2 -5q-4 -6 -9 -6q-1 0 -5 2l-215 129q-5 3 -5 9q0 3 2 5q2 5 8 5q4 0 6 -1l214 -129q6 -3 6 -9zM119 8q0 -11 -11 -11q-10 0 -10 11v681q0 11 10 11q11 0 11 -11v-681z" />
    <glyph glyph-name="Iacute" unicode="&#xcd;" horiz-adv-x="215" 
d="M225 889q0 -6 -6 -9l-214 -129q-2 -2 -6 -2q-6 0 -8 6q-2 2 -2 5q0 6 5 9l215 129q4 2 5 2q5 0 9 -6q2 -2 2 -5zM117 8q0 -11 -10 -11t-10 11v681q0 11 10 11t10 -11v-681z" />
    <glyph glyph-name="Icircumflex" unicode="&#xce;" horiz-adv-x="211" 
d="M232 812q0 -13 -10 -13q-3 0 -7 2l-108 73l-110 -73q-4 -2 -6 -2q-4 0 -7.5 4.5t-3.5 8.5q0 6 5 8l113 77q6 3 8 3t6 -2q2 -1 3 -1l113 -77q4 -3 4 -8zM116 8q0 -11 -10 -11q-11 0 -11 11v681q0 11 11 11q10 0 10 -11v-681z" />
    <glyph glyph-name="Idieresis" unicode="&#xcf;" horiz-adv-x="221" 
d="M22 846q0 -12 -11 -12q-10 0 -10 12v42q0 12 10 12q11 0 11 -12v-42zM221 846q0 -12 -10 -12q-11 0 -11 12v42q0 12 11 12q10 0 10 -12v-42zM121 8q0 -11 -10 -11q-11 0 -11 11v681q0 11 11 11q10 0 10 -11v-681z" />
    <glyph glyph-name="Eth" unicode="&#xd0;" horiz-adv-x="647" 
d="M541 176q0 -73 -51.5 -124.5t-124.5 -51.5h-176q-11 0 -11 11v366h-55q-11 0 -11 10q0 11 11 11h55v288q0 11 11 11h176q73 0 124.5 -51t51.5 -124v-346zM520 176v346q0 64 -45.5 109t-109.5 45h-166v-278h152q11 0 11 -11q0 -10 -11 -10h-152v-356h166q64 0 109.5 45.5
t45.5 109.5z" />
    <glyph glyph-name="Ntilde" unicode="&#xd1;" horiz-adv-x="575" 
d="M432 875q-39 -27 -82 -27q-27 0 -75 15.5t-66 15.5q-31 0 -62 -31q-6 -6 -13 -5t-8.5 6.5t3.5 12.5q34 38 83 38q21 0 68 -15.5t70 -15.5q40 0 69 24q6 5 12.5 2.5t7 -8.5t-6.5 -12zM456 7q0 -10 -10 -10h-9q-6 0 -9 6l-288 655v-651q0 -10 -11 -10q-10 0 -10 10v683
q0 10 10 10h9q7 0 10 -6l287 -655v651q0 10 11 10q10 0 10 -10v-683z" />
    <glyph glyph-name="Ograve" unicode="&#xd2;" 
d="M398 760q0 -3 -2 -5q-4 -6 -9 -6q-1 0 -5 2l-215 129q-5 3 -5 9q0 3 2 5q2 5 8 5q4 0 6 -1l214 -129q6 -3 6 -9zM461 173q0 -73 -51.5 -124.5t-124.5 -51.5h-11q-73 0 -124 51.5t-51 124.5v352q0 73 51 124t124 51h11q73 0 124.5 -51t51.5 -124v-352zM440 173v352
q0 64 -45.5 109t-109.5 45h-11q-64 0 -109 -45t-45 -109v-352q0 -64 45 -109.5t109 -45.5h11q65 0 110 45t45 110z" />
    <glyph glyph-name="Oacute" unicode="&#xd3;" 
d="M398 889q0 -6 -5 -9l-214 -129q-4 -2 -6 -2q-5 0 -9 6q-2 1 -2 5q0 6 5 9l214 129q4 2 6 2q5 0 9 -6q2 -1 2 -5zM461 173q0 -73 -51.5 -124.5t-124.5 -51.5h-11q-73 0 -124 51.5t-51 124.5v352q0 73 51 124t124 51h11q73 0 124.5 -51t51.5 -124v-352zM440 173v352
q0 64 -45.5 109t-109.5 45h-11q-64 0 -109 -45t-45 -109v-352q0 -64 45 -109.5t109 -45.5h11q65 0 110 45t45 110z" />
    <glyph glyph-name="Ocircumflex" unicode="&#xd4;" 
d="M406 812q0 -4 -3.5 -8.5t-7.5 -4.5q-2 0 -6 2l-108 73l-110 -73q-4 -2 -6 -2q-4 0 -7.5 4.5t-3.5 8.5q0 6 5 8l113 77q6 3 8 3t8 -3l113 -77q5 -2 5 -8zM461 173q0 -73 -51.5 -124.5t-124.5 -51.5h-11q-73 0 -124 51.5t-51 124.5v352q0 73 51 124t124 51h11
q73 0 124.5 -51t51.5 -124v-352zM440 173v352q0 64 -45.5 109t-109.5 45h-11q-64 0 -109 -45t-45 -109v-352q0 -64 45 -109.5t109 -45.5h11q65 0 110 45t45 110z" />
    <glyph glyph-name="Otilde" unicode="&#xd5;" 
d="M423 875q-39 -27 -83 -27q-26 0 -74 15.5t-66 15.5q-31 0 -62 -31q-7 -6 -14 -5t-8 6.5t4 12.5q35 38 82 38q22 0 69 -15.5t70 -15.5q40 0 69 24q6 5 12.5 2.5t7 -8.5t-6.5 -12zM461 173q0 -73 -51.5 -124.5t-124.5 -51.5h-11q-73 0 -124 51.5t-51 124.5v352q0 73 51 124
t124 51h11q73 0 124.5 -51t51.5 -124v-352zM440 173v352q0 64 -45.5 109t-109.5 45h-11q-64 0 -109 -45t-45 -109v-352q0 -64 45 -109.5t109 -45.5h11q65 0 110 45t45 110z" />
    <glyph glyph-name="Odieresis" unicode="&#xd6;" 
d="M188 846q0 -12 -10 -12q-11 0 -11 12v42q0 12 11 12q10 0 10 -12v-42zM388 846q0 -12 -11 -12q-10 0 -10 12v42q0 12 10 12q11 0 11 -12v-42zM461 173q0 -73 -51.5 -124.5t-124.5 -51.5h-11q-73 0 -124 51.5t-51 124.5v352q0 73 51 124t124 51h11q73 0 124.5 -51
t51.5 -124v-352zM440 173v352q0 64 -45.5 109t-109.5 45h-11q-64 0 -109 -45t-45 -109v-352q0 -64 45 -109.5t109 -45.5h11q65 0 110 45t45 110z" />
    <glyph glyph-name="multiply" unicode="&#xd7;" horiz-adv-x="666" 
d="M580 8q0 -5 -3 -8t-8 -3q-4 0 -7 3l-229 229l-229 -229q-3 -3 -7 -3q-5 0 -8 3t-3 8q0 4 3 7l229 229l-229 229q-3 3 -3 7q0 5 3 8t8 3q4 0 7 -3l229 -230l229 230q3 3 7 3q5 0 8 -3t3 -8q0 -4 -3 -7l-229 -229l229 -229q3 -3 3 -7z" />
    <glyph glyph-name="Oslash" unicode="&#xd8;" horiz-adv-x="602" 
d="M429 621q-48 58 -121 58h-11q-64 0 -109 -45t-45 -109v-352q0 -41 18 -74zM462 173v352q0 40 -19 76l-268 -523q47 -60 122 -60h11q64 0 109 45.5t45 109.5zM503 721q0 -3 -1 -4l-48 -95q29 -45 29 -97v-352q0 -73 -51 -124.5t-124 -51.5h-11q-80 0 -133 61l-45 -87
q-2 -6 -10 -6q-4 0 -7.5 3.5t-2.5 7.5l1 2v2l50 97q-28 44 -28 96v352q0 73 51 124t124 51h11q79 0 131 -59l44 85q2 6 10 6q5 0 8 -3.5t2 -7.5z" />
    <glyph glyph-name="Ugrave" unicode="&#xd9;" horiz-adv-x="600" 
d="M418 760q0 -3 -2 -5q-4 -6 -9 -6q-1 0 -5 2l-215 129q-5 3 -5 9q0 3 2 5q2 5 8 5q4 0 6 -1l214 -129q6 -3 6 -9zM481 173q0 -73 -51.5 -124.5t-124.5 -51.5h-10q-73 0 -124.5 51.5t-51.5 124.5v517q0 10 10 10q11 0 11 -10v-517q0 -64 45.5 -109.5t109.5 -45.5h10
q65 0 110 45t45 110v517q0 10 10 10q11 0 11 -10v-517z" />
    <glyph glyph-name="Uacute" unicode="&#xda;" horiz-adv-x="600" 
d="M417 889q0 -7 -5 -9l-214 -129q-4 -2 -6 -2q-5 0 -9 6q-1 1 -1 5q0 6 5 9l214 129q4 2 6 2q5 0 9 -6q1 -1 1 -5zM481 173q0 -73 -51.5 -124.5t-124.5 -51.5h-10q-73 0 -124.5 51.5t-51.5 124.5v517q0 10 10 10q11 0 11 -10v-517q0 -64 45.5 -109.5t109.5 -45.5h10
q65 0 110 45t45 110v517q0 10 10 10q11 0 11 -10v-517z" />
    <glyph glyph-name="Ucircumflex" unicode="&#xdb;" horiz-adv-x="600" 
d="M426 812q0 -4 -3.5 -8.5t-7.5 -4.5q-2 0 -6 2l-109 73l-109 -73q-4 -2 -7 -2q-10 0 -10 13q0 5 4 8l113 77l9 3q2 0 8 -3l113 -77q5 -3 5 -8zM481 173q0 -73 -51.5 -124.5t-124.5 -51.5h-10q-73 0 -124.5 51.5t-51.5 124.5v517q0 10 10 10q11 0 11 -10v-517
q0 -64 45.5 -109.5t109.5 -45.5h10q64 0 109.5 45.5t45.5 109.5v517q0 10 10 10q11 0 11 -10v-517z" />
    <glyph glyph-name="Udieresis" unicode="&#xdc;" horiz-adv-x="600" 
d="M208 846q0 -12 -11 -12q-10 0 -10 12v42q0 12 10 12q11 0 11 -12v-42zM407 846q0 -12 -10 -12q-11 0 -11 12v42q0 12 11 12q10 0 10 -12v-42zM481 173q0 -73 -51.5 -124.5t-124.5 -51.5h-10q-73 0 -124.5 51.5t-51.5 124.5v517q0 10 10 10q11 0 11 -10v-517
q0 -64 45.5 -109.5t109.5 -45.5h10q65 0 110 45t45 110v517q0 10 10 10q11 0 11 -10v-517z" />
    <glyph glyph-name="Yacute" unicode="&#xdd;" horiz-adv-x="475" 
d="M343 889q0 -7 -5 -9l-214 -129q-4 -2 -6 -2q-5 0 -9 6q-2 2 -2 5q0 6 6 9l214 129q4 2 6 2q5 0 9 -6q1 -1 1 -5zM422 690q0 -3 -1 -4l-173 -417v-262q0 -10 -10 -10q-11 0 -11 10v262l-173 417q-1 1 -1 4q0 10 11 10q6 0 9 -6l165 -396l164 396q3 6 9 6q11 0 11 -10z" />
    <glyph glyph-name="Thorn" unicode="&#xde;" horiz-adv-x="521" 
d="M429 294q0 -60 -42.5 -102.5t-102.5 -42.5h-124v-141q0 -11 -11 -11q-10 0 -10 11v681q0 11 10 11q11 0 11 -11v-142h124q60 0 102.5 -42t42.5 -102v-109zM408 294v109q0 51 -36 87.5t-88 36.5h-124v-357h124q52 0 88 36.5t36 87.5z" />
    <glyph glyph-name="germandbls" unicode="&#xdf;" horiz-adv-x="524" 
d="M458 178q0 -77 -52 -129t-107 -52q-10 0 -10 10.5t10 10.5q45 0 91.5 47.5t46.5 112.5v72q0 64 -25 105t-77 41q-6 0 -8 5t0.5 10.5t8.5 5.5q29 0 49 14.5t28.5 36.5t11.5 39t3 32v4q0 59 -39 97.5t-98 38.5h-11q-59 0 -96.5 -37.5t-37.5 -96.5v-592q0 -10 -11 -10
q-10 0 -10 10v592q0 67 44 111t111 44h11q67 0 112.5 -45t45.5 -112v-4q0 -12 -2 -27t-8.5 -37t-21 -40.5t-36.5 -27.5q77 -28 77 -157v-72z" />
    <glyph glyph-name="agrave" unicode="&#xe0;" horiz-adv-x="484" 
d="M360 561q0 -2 -2 -6q-3 -5 -9 -5q-3 0 -5 1l-215 129q-5 3 -5 9q0 2 2 6q2 5 8 5q2 0 6 -2l214 -129q6 -3 6 -8zM356 147v142q-20 -18 -54 -25q-9 -2 -37 -7t-47.5 -9t-46 -13t-43.5 -20.5t-29 -31t-12 -43.5v-6q0 -53 36 -84.5t92 -31.5h12q53 0 91 38t38 91zM438 7
q0 -10 -10 -10q-57 0 -71 78q-17 -35 -52.5 -56.5t-77.5 -21.5h-12q-64 0 -106.5 37t-42.5 101v5q0 24 8 44t25 34t33 23.5t42.5 17t42 11t43.5 8.5t37 7q59 13 59 60q0 54 -36 89.5t-88 35.5h-8q-87 0 -119 -73q-3 -7 -10 -7q-11 0 -11 11q0 3 1 4q38 86 139 86h8
q60 0 102 -40.5t42 -98.5v-246q0 -31 13 -59.5t39 -28.5q10 0 10 -11z" />
    <glyph glyph-name="aacute" unicode="&#xe1;" horiz-adv-x="484" 
d="M349 689q0 -6 -6 -9l-214 -129q-2 -1 -6 -1q-6 0 -8 5q-2 4 -2 6q0 5 5 8l215 129q4 2 5 2q6 0 9 -5q2 -4 2 -6zM356 147v142q-20 -18 -54 -25q-9 -2 -37 -7t-47.5 -9t-46 -13t-43.5 -20.5t-29 -31t-12 -43.5v-6q0 -53 36 -84.5t92 -31.5h12q53 0 91 38t38 91zM438 7
q0 -10 -10 -10q-57 0 -71 78q-17 -35 -52.5 -56.5t-77.5 -21.5h-12q-64 0 -106.5 37t-42.5 101v5q0 24 8 44t25 34t33 23.5t42.5 17t42 11t43.5 8.5t37 7q59 13 59 60q0 54 -36 89.5t-88 35.5h-8q-87 0 -119 -73q-3 -7 -10 -7q-11 0 -11 11q0 3 1 4q38 86 139 86h8
q60 0 102 -40.5t42 -98.5v-246q0 -31 13 -59.5t39 -28.5q10 0 10 -11z" />
    <glyph glyph-name="acircumflex" unicode="&#xe2;" horiz-adv-x="484" 
d="M357 613q0 -13 -10 -13q-3 0 -7 2l-108 72l-110 -72q-4 -2 -6 -2q-11 0 -11 13q0 5 5 8l113 76q3 3 8 3t9 -3l113 -76q4 -3 4 -8zM356 147v142q-20 -18 -54 -25q-9 -2 -37 -7t-47.5 -9t-46 -13t-43.5 -20.5t-29 -31t-12 -43.5v-6q0 -53 36 -84.5t92 -31.5h12q53 0 91 38
t38 91zM438 7q0 -10 -10 -10q-57 0 -71 78q-17 -35 -52.5 -56.5t-77.5 -21.5h-12q-64 0 -106.5 37t-42.5 101v5q0 24 8 44t25 34t33 23.5t42.5 17t42 11t43.5 8.5t37 7q59 13 59 60q0 54 -36 89.5t-88 35.5h-8q-87 0 -119 -73q-3 -7 -10 -7q-11 0 -11 11q0 3 1 4
q38 86 139 86h8q60 0 102 -40.5t42 -98.5v-246q0 -31 13 -59.5t39 -28.5q10 0 10 -11z" />
    <glyph glyph-name="atilde" unicode="&#xe3;" horiz-adv-x="484" 
d="M385 675q-37 -26 -83 -26q-26 0 -74 15t-66 15q-32 0 -62 -30q-11 -12 -20 -2q-6 7 2 15q35 38 82 38q22 0 69 -15.5t70 -15.5q40 0 69 24q6 5 12.5 3t7 -8.5t-6.5 -12.5zM356 147v142q-20 -18 -54 -25q-9 -2 -37 -7t-47.5 -9t-46 -13t-43.5 -20.5t-29 -31t-12 -43.5v-6
q0 -53 36 -84.5t92 -31.5h12q53 0 91 38t38 91zM438 7q0 -10 -10 -10q-57 0 -71 78q-17 -35 -52.5 -56.5t-77.5 -21.5h-12q-64 0 -106.5 37t-42.5 101v5q0 24 8 44t25 34t33 23.5t42.5 17t42 11t43.5 8.5t37 7q59 13 59 60q0 54 -36 89.5t-88 35.5h-8q-87 0 -119 -73
q-3 -7 -10 -7q-11 0 -11 11q0 3 1 4q38 86 139 86h8q60 0 102 -40.5t42 -98.5v-246q0 -31 13 -59.5t39 -28.5q10 0 10 -11z" />
    <glyph glyph-name="adieresis" unicode="&#xe4;" horiz-adv-x="484" 
d="M143 646q0 -11 -11 -11q-10 0 -10 11v42q0 12 10 12q11 0 11 -12v-42zM342 646q0 -11 -10 -11q-11 0 -11 11v42q0 12 11 12q10 0 10 -12v-42zM356 147v142q-20 -18 -54 -25q-9 -2 -37 -7t-47.5 -9t-46 -13t-43.5 -20.5t-29 -31t-12 -43.5v-6q0 -53 36 -84.5t92 -31.5h12
q53 0 91 38t38 91zM438 7q0 -10 -10 -10q-57 0 -71 78q-17 -35 -52.5 -56.5t-77.5 -21.5h-12q-64 0 -106.5 37t-42.5 101v5q0 24 8 44t25 34t33 23.5t42.5 17t42 11t43.5 8.5t37 7q59 13 59 60q0 54 -36 89.5t-88 35.5h-8q-87 0 -119 -73q-3 -7 -10 -7q-11 0 -11 11q0 3 1 4
q38 86 139 86h8q60 0 102 -40.5t42 -98.5v-246q0 -31 13 -59.5t39 -28.5q10 0 10 -11z" />
    <glyph glyph-name="aring" unicode="&#xe5;" horiz-adv-x="484" 
d="M299 630q0 -29 -20.5 -49.5t-49.5 -20.5t-49.5 20.5t-20.5 49.5t20.5 49.5t49.5 20.5t49.5 -20.5t20.5 -49.5zM278 630q0 20 -14.5 34.5t-34.5 14.5t-34.5 -14.5t-14.5 -34.5t14.5 -34.5t34.5 -14.5t34.5 14.5t14.5 34.5zM356 147v142q-20 -18 -54 -25q-9 -2 -37 -7
t-47.5 -9t-46 -13t-43.5 -20.5t-29 -31t-12 -43.5v-6q0 -53 36 -84.5t92 -31.5h12q53 0 91 38t38 91zM438 7q0 -10 -10 -10q-57 0 -71 78q-17 -35 -52.5 -56.5t-77.5 -21.5h-12q-64 0 -106.5 37t-42.5 101v5q0 24 8 44t25 34t33 23.5t42.5 17t42 11t43.5 8.5t37 7
q59 13 59 60q0 54 -36 89.5t-88 35.5h-8q-87 0 -119 -73q-3 -7 -10 -7q-11 0 -11 11q0 3 1 4q38 86 139 86h8q60 0 102 -40.5t42 -98.5v-246q0 -31 13 -59.5t39 -28.5q10 0 10 -11z" />
    <glyph glyph-name="ae" unicode="&#xe6;" horiz-adv-x="740" 
d="M646 256v85q0 53 -38 91t-91 38h-11q-53 0 -91.5 -38t-38.5 -91v-85h270zM356 147v142q-20 -18 -54 -25q-9 -2 -37 -7t-47.5 -9t-46 -13t-43.5 -20.5t-29 -31t-12 -43.5v-6q0 -53 36 -84.5t92 -31.5h12q53 0 91 38t38 91zM667 246q0 -11 -11 -11h-280v-88q0 -53 38.5 -91
t91.5 -38h10q42 0 75.5 24.5t46.5 63.5q3 7 10 7q11 0 11 -10q0 -3 -1 -4q-15 -45 -54 -73.5t-88 -28.5h-10q-46 0 -84 26t-55 67h-1q-16 -45 -55 -69t-84 -24h-12q-64 0 -106.5 37t-42.5 101v5q0 24 8 43.5t25 33.5t32.5 24t42.5 17.5t42.5 11t44 8.5t36.5 7q59 13 59 60
q0 54 -36 89.5t-88 35.5h-8q-87 0 -119 -73q-3 -7 -10 -7q-11 0 -11 11q0 3 1 4q38 86 139 86h8q46 0 83.5 -25t52.5 -66q17 41 55 66t84 25h8q63 0 107.5 -42.5t44.5 -107.5v-95z" />
    <glyph glyph-name="ccedilla" unicode="&#xe7;" horiz-adv-x="463" 
d="M397 147q0 -61 -42 -104.5t-103 -45.5v-45q26 -2 44 -21.5t18 -45.5v-11q0 -28 -19.5 -47.5t-47.5 -19.5h-11q-23 0 -41 13.5t-24 34.5q-3 10 7 13t13 -7q5 -14 17 -23.5t28 -9.5h11q19 0 32.5 13.5t13.5 32.5v11q0 19 -13.5 32.5t-32.5 13.5h-5q-11 0 -11 11v55
q-60 2 -102.5 45.5t-42.5 104.5v194q0 62 44 106t106 44h11q62 0 106 -44t44 -106q0 -11 -11 -11t-11 11q0 53 -37.5 91t-90.5 38h-11q-53 0 -91 -38t-38 -91v-194q0 -53 38 -91t91 -38h11q53 0 90.5 38t37.5 91q0 11 11 11t11 -11z" />
    <glyph glyph-name="egrave" unicode="&#xe8;" horiz-adv-x="469" 
d="M365 561q0 -2 -2 -6q-3 -5 -9 -5q-3 0 -5 1l-215 129q-5 3 -5 9q0 2 2 6q2 5 8 5q2 0 6 -2l214 -129q6 -3 6 -8zM397 246q0 -11 -11 -11h-279v-88q0 -53 38 -91t91 -38h11q41 0 74.5 24.5t47.5 63.5q1 7 9 7q12 0 12 -10q0 -1 -0.5 -2t-0.5 -2q-15 -45 -54 -73.5
t-88 -28.5h-11q-62 0 -106 44t-44 106v194q0 62 44.5 106t106.5 44h8q63 0 107.5 -42.5t44.5 -107.5v-95zM376 256v85q0 53 -38 91t-91 38h-10q-53 0 -91.5 -38t-38.5 -91v-85h269z" />
    <glyph glyph-name="eacute" unicode="&#xe9;" horiz-adv-x="469" 
d="M354 689q0 -6 -6 -9l-214 -129q-2 -1 -6 -1q-6 0 -8 5q-2 4 -2 6q0 5 5 8l215 129q4 2 5 2q6 0 9 -5q2 -4 2 -6zM397 246q0 -11 -11 -11h-279v-88q0 -53 38 -91t91 -38h11q41 0 74.5 24.5t47.5 63.5q1 7 9 7q12 0 12 -10q0 -1 -0.5 -2t-0.5 -2q-15 -45 -54 -73.5
t-88 -28.5h-11q-62 0 -106 44t-44 106v194q0 62 44.5 106t106.5 44h8q63 0 107.5 -42.5t44.5 -107.5v-95zM376 256v85q0 53 -38 91t-91 38h-10q-53 0 -91.5 -38t-38.5 -91v-85h269z" />
    <glyph glyph-name="ecircumflex" unicode="&#xea;" horiz-adv-x="469" 
d="M367 613q0 -13 -10 -13q-3 0 -7 2l-108 72l-110 -72q-4 -2 -6 -2q-11 0 -11 13q0 5 5 8l113 76q3 3 8 3t9 -3l113 -76q4 -3 4 -8zM397 246q0 -11 -11 -11h-279v-88q0 -53 38 -91t91 -38h11q41 0 74.5 24.5t47.5 63.5q1 7 9 7q12 0 12 -10q0 -1 -0.5 -2t-0.5 -2
q-15 -45 -54 -73.5t-88 -28.5h-11q-62 0 -106 44t-44 106v194q0 62 44.5 106t106.5 44h8q63 0 107.5 -42.5t44.5 -107.5v-95zM376 256v85q0 53 -38 91t-91 38h-10q-53 0 -91.5 -38t-38.5 -91v-85h269z" />
    <glyph glyph-name="edieresis" unicode="&#xeb;" horiz-adv-x="469" 
d="M149 646q0 -11 -11 -11q-10 0 -10 11v42q0 12 10 12q11 0 11 -12v-42zM348 646q0 -11 -10 -11q-11 0 -11 11v42q0 12 11 12q10 0 10 -12v-42zM397 246q0 -11 -11 -11h-279v-88q0 -53 38 -91t91 -38h11q41 0 74.5 24.5t47.5 63.5q1 7 9 7q12 0 12 -10q0 -1 -0.5 -2
t-0.5 -2q-15 -45 -54 -73.5t-88 -28.5h-11q-62 0 -106 44t-44 106v194q0 62 44.5 106t106.5 44h8q63 0 107.5 -42.5t44.5 -107.5v-95zM376 256v85q0 53 -38 91t-91 38h-10q-53 0 -91.5 -38t-38.5 -91v-85h269z" />
    <glyph glyph-name="igrave" unicode="&#xec;" horiz-adv-x="177" 
d="M206 561q0 -2 -2 -6q-3 -5 -9 -5q-3 0 -5 1l-215 129q-5 3 -5 9q0 2 2 6q2 5 8 5q2 0 6 -2l214 -129q6 -3 6 -8zM99 8q0 -11 -11 -11q-10 0 -10 11v472q0 11 10 11q11 0 11 -11v-472z" />
    <glyph glyph-name="iacute" unicode="&#xed;" horiz-adv-x="177" 
d="M206 689q0 -6 -6 -9l-214 -129q-2 -1 -6 -1q-6 0 -8 5q-2 4 -2 6q0 5 5 8l215 129q4 2 5 2q6 0 9 -5q2 -4 2 -6zM99 8q0 -11 -11 -11q-10 0 -10 11v472q0 11 10 11q11 0 11 -11v-472z" />
    <glyph glyph-name="icircumflex" unicode="&#xee;" horiz-adv-x="171" 
d="M212 613q0 -13 -10 -13q-3 0 -7 2l-108 72l-110 -72q-4 -2 -6 -2q-11 0 -11 13q0 5 5 8l113 76q3 3 8 3q4 0 9 -3l113 -76q4 -3 4 -8zM96 8q0 -11 -11 -11q-10 0 -10 11v472q0 11 10 11q11 0 11 -11v-472z" />
    <glyph glyph-name="idieresis" unicode="&#xef;" horiz-adv-x="182" 
d="M2 646q0 -11 -11 -11q-10 0 -10 11v42q0 12 10 12q11 0 11 -12v-42zM201 646q0 -11 -10 -11q-11 0 -11 11v42q0 12 11 12q10 0 10 -12v-42zM101 8q0 -11 -11 -11q-10 0 -10 11v472q0 11 10 11q11 0 11 -11v-472z" />
    <glyph glyph-name="eth" unicode="&#xf0;" horiz-adv-x="555" 
d="M469 689q0 -5 -4 -9l-72 -50q21 -36 21 -75v-413q0 -60 -42.5 -102.5t-102.5 -42.5h-12q-60 0 -102.5 42.5t-42.5 102.5v135q0 60 42.5 102.5t102.5 42.5h12q38 0 71 -19t53 -51v203q0 32 -18 63l-102 -73q-2 -2 -7 -2q-10 0 -10 11q0 6 5 8l102 73q-37 44 -94 44h-62
q-11 0 -11 11q0 10 11 10h62q67 0 112 -53l72 51q4 2 6 2q10 0 10 -11zM393 142v135q0 51 -36.5 87.5t-87.5 36.5h-12q-52 0 -88 -36.5t-36 -87.5v-135q0 -51 36 -87.5t88 -36.5h12q51 0 87.5 36.5t36.5 87.5z" />
    <glyph glyph-name="ntilde" unicode="&#xf1;" horiz-adv-x="503" 
d="M406 675q-37 -26 -83 -26q-26 0 -74 15t-66 15q-32 0 -62 -30q-11 -12 -20 -2q-6 7 2 15q35 38 82 38q22 0 69 -15.5t70 -15.5q40 0 69 24q6 5 12.5 3t7 -8.5t-6.5 -12.5zM417 8q0 -11 -11 -11q-10 0 -10 11v332q0 54 -38.5 92t-91.5 38h-10q-53 0 -91.5 -35.5
t-38.5 -84.5v-342q0 -11 -11 -11q-10 0 -10 11v472q0 10 10 10q11 0 11 -10v-62q14 32 51 52.5t79 20.5h10q62 0 106.5 -44t44.5 -107v-332z" />
    <glyph glyph-name="ograve" unicode="&#xf2;" horiz-adv-x="483" 
d="M372 561q0 -2 -2 -6q-3 -5 -9 -5q-3 0 -5 1l-215 129q-5 3 -5 9q0 2 2 6q2 5 8 5q2 0 6 -2l214 -129q6 -3 6 -8zM397 147q0 -62 -44 -106t-106 -44h-11q-62 0 -106 44t-44 106v194q0 62 44 106t106 44h11q62 0 106 -44t44 -106v-194zM376 147v194q0 53 -38 91t-91 38h-11
q-53 0 -91 -38t-38 -91v-194q0 -53 38 -91t91 -38h11q53 0 91 38t38 91z" />
    <glyph glyph-name="oacute" unicode="&#xf3;" horiz-adv-x="483" 
d="M352 689q0 -6 -6 -9l-214 -129q-2 -1 -6 -1q-6 0 -8 5q-2 4 -2 6q0 5 5 8l215 129q4 2 5 2q6 0 9 -5q2 -4 2 -6zM397 147q0 -62 -44 -106t-106 -44h-11q-62 0 -106 44t-44 106v194q0 62 44 106t106 44h11q62 0 106 -44t44 -106v-194zM376 147v194q0 53 -38 91t-91 38h-11
q-53 0 -91 -38t-38 -91v-194q0 -53 38 -91t91 -38h11q53 0 91 38t38 91z" />
    <glyph glyph-name="ocircumflex" unicode="&#xf4;" horiz-adv-x="483" 
d="M367 613q0 -13 -10 -13q-3 0 -7 2l-108 72l-110 -72q-4 -2 -6 -2q-11 0 -11 13q0 5 5 8l113 76q3 3 8 3t9 -3l113 -76q4 -3 4 -8zM397 147q0 -62 -44 -106t-106 -44h-11q-62 0 -106 44t-44 106v194q0 62 44 106t106 44h11q62 0 106 -44t44 -106v-194zM376 147v194
q0 53 -38 91t-91 38h-11q-53 0 -91 -38t-38 -91v-194q0 -53 38 -91t91 -38h11q53 0 91 38t38 91z" />
    <glyph glyph-name="otilde" unicode="&#xf5;" horiz-adv-x="493" 
d="M387 675q-35 -26 -83 -26q-26 0 -74 15t-66 15q-32 0 -62 -30q-11 -12 -20 -2q-6 7 2 15q35 38 82 38q22 0 69 -15.5t70 -15.5q42 0 69 24q7 5 13.5 3t7 -8.5t-7.5 -12.5zM395 147q0 -62 -44 -106t-106 -44h-11q-62 0 -106 44t-44 106v194q0 62 44 106t106 44h11
q62 0 106 -44t44 -106v-194zM374 147v194q0 53 -38 91t-91 38h-11q-53 0 -91 -38t-38 -91v-194q0 -53 38 -91t91 -38h11q53 0 91 38t38 91z" />
    <glyph glyph-name="odieresis" unicode="&#xf6;" horiz-adv-x="483" 
d="M149 646q0 -11 -11 -11q-10 0 -10 11v42q0 12 10 12q11 0 11 -12v-42zM348 646q0 -11 -10 -11q-11 0 -11 11v42q0 12 11 12q10 0 10 -12v-42zM397 147q0 -62 -44 -106t-106 -44h-11q-62 0 -106 44t-44 106v194q0 62 44 106t106 44h11q62 0 106 -44t44 -106v-194zM376 147
v194q0 53 -38 91t-91 38h-11q-53 0 -91 -38t-38 -91v-194q0 -53 38 -91t91 -38h11q53 0 91 38t38 91z" />
    <glyph glyph-name="divide" unicode="&#xf7;" horiz-adv-x="419" 
d="M220 536q0 -11 -11 -11q-10 0 -10 11v42q0 12 10 12q11 0 11 -12v-42zM359 342q0 -11 -10 -11h-278q-12 0 -12 11t12 11h278q10 0 10 -11zM220 108q0 -12 -11 -12q-10 0 -10 12v42q0 11 10 11q11 0 11 -11v-42z" />
    <glyph glyph-name="oslash" unicode="&#xf8;" horiz-adv-x="510" 
d="M354 424q-39 46 -99 46h-10q-54 0 -92 -38t-38 -91v-194q0 -39 23 -73zM384 147v194q0 36 -17 65l-215 -349q39 -39 93 -39h10q53 0 91 38t38 91zM424 500q0 -2 -2 -6l-43 -68q26 -37 26 -85v-194q0 -62 -44 -106t-106 -44h-10q-60 0 -104 42l-35 -56q-4 -5 -9 -5
q-4 0 -6 1q-5 3 -5 9q0 2 2 6l38 61q-32 40 -32 92v194q0 62 44.5 106t106.5 44h10q67 0 110 -48l39 62q2 5 9 5q3 0 5 -2q6 -2 6 -8z" />
    <glyph glyph-name="ugrave" unicode="&#xf9;" horiz-adv-x="497" 
d="M367 561q0 -2 -2 -6q-3 -5 -9 -5q-3 0 -5 1l-215 129q-5 3 -5 9q0 2 2 6q2 5 8 5q2 0 6 -2l214 -129q6 -3 6 -8zM398 8q0 -11 -11 -11q-10 0 -10 11v62q-14 -32 -51 -52.5t-79 -20.5h-11q-62 0 -106 44t-44 107v332q0 11 10 11q11 0 11 -11v-332q0 -54 38 -92t91 -38h11
q53 0 91.5 35.5t38.5 84.5v342q0 11 10 11q11 0 11 -11v-472z" />
    <glyph glyph-name="uacute" unicode="&#xfa;" horiz-adv-x="497" 
d="M359 689q0 -6 -6 -9l-214 -129q-2 -1 -6 -1q-6 0 -8 5q-2 4 -2 6q0 5 5 8l215 129q4 2 5 2q6 0 9 -5q2 -4 2 -6zM398 8q0 -11 -11 -11q-10 0 -10 11v62q-14 -32 -51 -52.5t-79 -20.5h-11q-62 0 -106 44t-44 107v332q0 11 10 11q11 0 11 -11v-332q0 -54 38 -92t91 -38h11
q53 0 91.5 35.5t38.5 84.5v342q0 11 10 11q11 0 11 -11v-472z" />
    <glyph glyph-name="ucircumflex" unicode="&#xfb;" horiz-adv-x="497" 
d="M368 613q0 -13 -11 -13q-1 0 -7 2l-108 72l-110 -72q-4 -2 -6 -2q-11 0 -11 13q0 5 5 8l113 76q4 3 8 3q5 0 9 -3l113 -76q5 -3 5 -8zM398 8q0 -11 -11 -11q-10 0 -10 11v62q-14 -32 -51 -52.5t-79 -20.5h-11q-62 0 -106 44t-44 107v332q0 11 10 11q11 0 11 -11v-332
q0 -54 38 -92t91 -38h11q53 0 91.5 35.5t38.5 84.5v342q0 11 10 11q11 0 11 -11v-472z" />
    <glyph glyph-name="udieresis" unicode="&#xfc;" horiz-adv-x="497" 
d="M148 646q0 -11 -10 -11t-10 11v42q0 12 10 12t10 -12v-42zM348 646q0 -11 -11 -11q-10 0 -10 11v42q0 12 10 12q11 0 11 -12v-42zM398 8q0 -11 -11 -11q-10 0 -10 11v62q-14 -32 -51 -52.5t-79 -20.5h-11q-62 0 -106 44t-44 107v332q0 11 10 11q11 0 11 -11v-332
q0 -54 38 -92t91 -38h11q53 0 91.5 35.5t38.5 84.5v342q0 11 10 11q11 0 11 -11v-472z" />
    <glyph glyph-name="yacute" unicode="&#xfd;" horiz-adv-x="410" 
d="M324 689q0 -6 -6 -9l-214 -129q-2 -1 -6 -1q-6 0 -8 5q-2 4 -2 6q0 5 5 8l215 129q4 2 5 2q6 0 9 -5q2 -4 2 -6zM364 477l-188 -582q-19 -58 -46.5 -83t-72.5 -25q-11 0 -11 10t11 10q67 0 98 95l49 147l-149 428q-1 1 -1 4q0 10 11 10q7 0 10 -7l140 -401l128 400
q3 8 10 8q11 0 11 -10v-4z" />
    <glyph glyph-name="thorn" unicode="&#xfe;" horiz-adv-x="531" 
d="M418 142v205q0 51 -36.5 87t-87.5 36h-10q-51 0 -87.5 -36t-36.5 -87v-205q0 -51 36.5 -87.5t87.5 -36.5h10q51 0 87.5 36t36.5 88zM439 142q0 -60 -42.5 -102.5t-102.5 -42.5h-10q-82 0 -124 70v-257q0 -7 -5 -9.5t-10.5 0t-5.5 9.5v888q0 7 5.5 9.5t10.5 0t5 -9.5v-277
q42 70 124 70h10q60 0 102.5 -42t42.5 -102v-205z" />
    <glyph glyph-name="ydieresis" unicode="&#xff;" horiz-adv-x="410" 
d="M117 646q0 -11 -11 -11q-10 0 -10 11v42q0 12 10 12q11 0 11 -12v-42zM316 646q0 -11 -10 -11t-10 11v42q0 12 10 12t10 -12v-42zM364 477l-188 -582q-19 -58 -46.5 -83t-72.5 -25q-11 0 -11 10t11 10q67 0 98 95l49 147l-149 428q-1 1 -1 4q0 10 11 10q7 0 10 -7
l140 -401l128 400q3 8 10 8q11 0 11 -10v-4z" />
    <glyph glyph-name="dotlessi" unicode="&#x131;" horiz-adv-x="245" 
d="M133 8q0 -11 -11 -11q-10 0 -10 11v472q0 11 10 11q11 0 11 -11v-472z" />
    <glyph glyph-name="Lslash" unicode="&#x141;" horiz-adv-x="486" 
d="M479 10q0 -10 -10 -10h-297q-10 0 -10 11v294l-67 -39q-4 -2 -6 -2q-4 0 -7 3.5t-3 7.5q0 6 5 9l78 46v359q0 11 10 11q11 0 11 -11v-347l214 129q2 2 6 2q10 0 10 -11q0 -6 -5 -9l-225 -135v-297h286q10 0 10 -11z" />
    <glyph glyph-name="lslash" unicode="&#x142;" horiz-adv-x="458" 
d="M386 453q0 -6 -5 -9l-137 -86v-350q0 -11 -11 -11q-10 0 -10 11v337l-134 -84q-4 -2 -5 -2q-11 0 -11 11q0 6 5 9l145 91v319q0 11 10 11q11 0 11 -11v-306l125 79q4 2 6 2q11 0 11 -11z" />
    <glyph glyph-name="OE" unicode="&#x152;" horiz-adv-x="830" 
d="M440 173v352q0 64 -45.5 109t-109.5 45h-11q-64 0 -109 -45t-45 -109v-352q0 -64 45 -109.5t109 -45.5h11q65 0 110 45t45 110zM790 10q0 -10 -10 -10h-330q-10 0 -10 10v80q-23 -42 -64.5 -67.5t-90.5 -25.5h-11q-73 0 -124 51.5t-51 124.5v352q0 73 51 124t124 51h11
q50 0 91 -25t64 -68v80q0 10 10 10h330q10 0 10 -10q0 -11 -10 -11h-319v-305h227q10 0 10 -10q0 -11 -10 -11h-227v-329h319q10 0 10 -11z" />
    <glyph glyph-name="oe" unicode="&#x153;" horiz-adv-x="759" 
d="M376 147v194q0 53 -38 91t-91 38h-11q-53 0 -91 -38t-38 -91v-194q0 -53 38 -91t91 -38h11q53 0 91 38t38 91zM666 256v85q0 53 -38 91t-91 38h-11q-53 0 -91 -38t-38 -91v-85h269zM687 246q0 -11 -11 -11h-279v-88q0 -53 38 -91t91 -38h10q42 0 75.5 24.5t46.5 63.5
q3 7 10 7q11 0 11 -10v-4q-15 -45 -54.5 -73.5t-88.5 -28.5h-10q-47 0 -85 26.5t-55 68.5q-17 -43 -54.5 -69t-84.5 -26h-11q-62 0 -106 44t-44 106v194q0 62 44 106t106 44h11q47 0 85 -26.5t54 -68.5q17 42 55.5 68.5t85.5 26.5h8q63 0 107.5 -42.5t44.5 -107.5v-95z" />
    <glyph glyph-name="Scaron" unicode="&#x160;" horiz-adv-x="500" 
d="M374 887q0 -4 -5 -9l-113 -76q-4 -3 -9 -3q-4 0 -8 3l-113 76q-5 5 -5 9t3.5 8t7.5 4t6 -2l109 -72l109 72q4 3 7 3q4 0 7.5 -4.5t3.5 -8.5zM434 162q0 -74 -51.5 -119.5t-129.5 -45.5h-11q-75 0 -125.5 47.5t-50.5 127.5q0 7 5 9.5t10.5 0t5.5 -9.5q0 -71 44 -112.5
t111 -41.5h11q69 0 114.5 39t45.5 105q0 46 -19 81.5t-48.5 58t-66 41t-73 36t-66 37.5t-48.5 52t-19 73q0 71 49 115t121 44h10q71 0 120 -42t49 -107q0 -7 -5 -9.5t-10.5 0t-5.5 8.5q0 57 -42.5 93t-105.5 36h-10q-63 0 -106 -38t-43 -101q0 -37 19 -66t48.5 -48t66 -36
t73 -36.5t66 -43t48.5 -61.5t19 -87z" />
    <glyph glyph-name="scaron" unicode="&#x161;" horiz-adv-x="451" 
d="M351 687q0 -5 -5 -8l-113 -76q-3 -3 -8 -3t-8 3l-113 76q-5 3 -5 8q0 13 11 13q2 0 6 -2l108 -73l110 73q4 2 6 2q11 0 11 -13zM392 131q0 -66 -47 -100t-113 -34h-9q-46 0 -94.5 28t-67.5 70q-3 6 0.5 11t10 4.5t9.5 -6.5q17 -36 59.5 -61t82.5 -25h9q60 0 99.5 29
t39.5 84q0 31 -12 53.5t-35.5 35.5t-45 20t-54.5 13q-147 28 -147 112v9q0 57 43.5 87t101.5 30h6q72 0 134 -54q5 -5 3.5 -11t-6.5 -7.5t-11 2.5q-57 49 -120 49h-6q-49 0 -87 -24t-38 -72v-9q0 -65 130 -93q31 -6 49.5 -11t43.5 -16t38.5 -24.5t23.5 -36.5t10 -53z" />
    <glyph glyph-name="Ydieresis" unicode="&#x178;" horiz-adv-x="475" 
d="M147 846q0 -12 -11 -12q-10 0 -10 12v42q0 12 10 12q11 0 11 -12v-42zM346 846q0 -12 -10 -12q-11 0 -11 12v42q0 12 11 12q10 0 10 -12v-42zM422 690q0 -3 -1 -4l-173 -417v-262q0 -10 -10 -10q-11 0 -11 10v262l-173 417q-1 1 -1 4q0 10 11 10q6 0 9 -6l165 -396
l164 396q3 6 9 6q11 0 11 -10z" />
    <glyph glyph-name="Zcaron" unicode="&#x17d;" horiz-adv-x="474" 
d="M374 887q0 -4 -5 -9l-113 -76q-4 -3 -9 -3q-4 0 -8 3l-113 76q-5 5 -5 9t3.5 8t7.5 4t6 -2l109 -72l109 72q4 3 7 3q4 0 7.5 -4.5t3.5 -8.5zM428 10q0 -10 -10 -10h-355q-10 0 -10 10v8l4 10l338 648h-313q-11 0 -11 11q0 10 11 10h326q11 0 11 -10v-8l-3 -11l-337 -647
h339q10 0 10 -11z" />
    <glyph glyph-name="zcaron" unicode="&#x17e;" horiz-adv-x="454" 
d="M355 687q0 -5 -4 -8l-113 -76q-4 -3 -9 -3t-8 3l-113 76q-5 3 -5 8q0 13 11 13q2 0 6 -2l108 -73l110 73q4 2 7 2q10 0 10 -13zM401 10q0 -10 -11 -10h-327q-4 0 -7 3.5t-3 7.5v6l4 11l308 439h-293q-10 0 -10 11q0 10 10 10h306q10 0 10 -11v-6l-3 -12l-306 -438h311
q11 0 11 -11z" />
    <glyph glyph-name="florin" unicode="&#x192;" horiz-adv-x="345" 
d="M316 679q-42 0 -71 -23.5t-36 -69.5l-16 -95h76q7 0 10 -5.5t0 -10.5t-10 -5h-80l-77 -438q-10 -52 -44.5 -81.5t-82.5 -29.5q-7 0 -10 5.5t0 10.5t10 5q39 0 68.5 26.5t37.5 66.5l76 435h-55q-7 0 -10 5t0 10.5t10 5.5h59l17 98q9 53 44 82t84 29q10 0 10 -10.5
t-10 -10.5z" />
    <glyph glyph-name="circumflex" unicode="&#x2c6;" horiz-adv-x="513" 
d="M383 613q0 -13 -11 -13q-2 0 -6 2l-108 72l-110 -72q-4 -2 -6 -2q-11 0 -11 13q0 5 5 8l113 76q3 3 8 3t8 -3l113 -76q5 -3 5 -8z" />
    <glyph glyph-name="caron" unicode="&#x2c7;" horiz-adv-x="513" 
d="M383 687q0 -5 -5 -8l-113 -76q-3 -3 -8 -3t-8 3l-113 76q-5 3 -5 8q0 13 11 13q2 0 6 -2l108 -73l110 73q4 2 6 2q11 0 11 -13z" />
    <glyph glyph-name="breve" unicode="&#x2d8;" horiz-adv-x="534" 
d="M361 770q0 -38 -26.5 -64.5t-64.5 -26.5h-6q-38 0 -64.5 26.5t-26.5 64.5q0 7 5.5 9.5t10.5 0t5 -9.5q0 -29 20.5 -49.5t49.5 -20.5h6q29 0 49.5 20.5t20.5 49.5q0 7 5 9.5t10.5 0t5.5 -9.5z" />
    <glyph glyph-name="dotaccent" unicode="&#x2d9;" horiz-adv-x="317" 
d="M169 646q0 -11 -11 -11q-10 0 -10 11v42q0 12 10 12q11 0 11 -12v-42z" />
    <glyph glyph-name="ring" unicode="&#x2da;" horiz-adv-x="549" 
d="M345 630q0 -29 -20.5 -49.5t-49.5 -20.5t-49.5 20.5t-20.5 49.5t20.5 49.5t49.5 20.5t49.5 -20.5t20.5 -49.5zM324 630q0 20 -14.5 34.5t-34.5 14.5t-34.5 -14.5t-14.5 -34.5t14.5 -34.5t34.5 -14.5t34.5 14.5t14.5 34.5z" />
    <glyph glyph-name="ogonek" unicode="&#x2db;" horiz-adv-x="547" 
d="M346 -99q-6 -21 -26.5 -36t-43.5 -15h-9q-28 0 -48 20t-20 48v10q0 37 38.5 60t82.5 30q10 1 12 -9t-9 -12q-103 -21 -103 -69v-10q0 -20 14 -33.5t33 -13.5h9q16 0 30.5 11t19.5 25q2 6 7.5 7t10 -3t2.5 -10z" />
    <glyph glyph-name="tilde" unicode="&#x2dc;" horiz-adv-x="494" 
d="M397 547q-39 -27 -82 -27q-27 0 -75 15.5t-66 15.5q-33 0 -62 -31q-6 -6 -13 -5t-8.5 6.5t3.5 12.5q34 38 83 38q21 0 68 -15.5t70 -15.5q42 0 69 24q6 5 12.5 2.5t7 -8.5t-6.5 -12z" />
    <glyph glyph-name="hungarumlaut" unicode="&#x2dd;" horiz-adv-x="514" 
d="M241 689q0 -59 -20.5 -92.5t-74.5 -52.5q-1 -1 -4 -1q-10 0 -10 11q0 7 7 10q46 16 63.5 44.5t17.5 80.5q0 11 10 11q11 0 11 -11zM382 689q0 -59 -20.5 -92.5t-74.5 -52.5q-1 -1 -3 -1q-11 0 -11 11q0 7 7 10q47 16 64.5 44.5t17.5 80.5q0 11 10 11t10 -11z" />
    <glyph glyph-name="Delta" unicode="&#x394;" horiz-adv-x="685" 
d="M665 12q0 -12 -15 -12h-615q-15 0 -15 12q0 8 4 16l300 617q6 12 18 12q13 0 19 -12l300 -617q4 -11 4 -16zM640 21l-298 613l-297 -613h595z" />
    <glyph glyph-name="Omega" unicode="&#x3a9;" horiz-adv-x="761" 
d="M689 395q0 -96 -53.5 -173.5t-140.5 -112.5v-88h179q11 0 11 -11q0 -10 -11 -10h-189q-11 0 -11 11v97q0 14 11 20q16 6 35 16.5t46.5 33.5t49 51t37 72t15.5 94q0 118 -84 201t-203 83t-203 -83t-84 -201q0 -50 15.5 -94t37 -72t49 -51t46 -33t34.5 -17q12 -4 12 -20
v-97q0 -11 -11 -11h-189q-11 0 -11 10q0 11 11 11h179v88q-87 35 -140.5 112.5t-53.5 173.5q0 127 90 216t218 89t218 -89t90 -216z" />
    <glyph glyph-name="mu" unicode="&#x3bc;" horiz-adv-x="503" 
d="M411 8q0 -11 -11 -11q-10 0 -10 11v62q-14 -32 -51 -52.5t-79 -20.5h-10q-42 0 -79 20.5t-51 52.5v-272q0 -11 -11 -11q-10 0 -10 11v682q0 11 10 11q11 0 11 -11v-342q0 -49 38.5 -84.5t91.5 -35.5h10q53 0 91.5 35.5t38.5 84.5v342q0 11 10 11q11 0 11 -11v-472z" />
    <glyph glyph-name="pi" unicode="&#x3c0;" horiz-adv-x="471" 
d="M458 478q0 -11 -10 -11h-115v-349q0 -100 64 -100q10 0 10 -11q0 -10 -11 -10q-9 0 -17 1q-39 11 -53 39.5t-14 80.5v349h-154v-459q0 -11 -11 -11q-10 0 -10 11v459h-113q-11 0 -11 11q0 10 11 10h424q10 0 10 -10z" />
    <glyph glyph-name="endash" unicode="&#x2013;" horiz-adv-x="549" 
d="M489 342q0 -11 -11 -11h-408q-11 0 -11 10q0 12 11 12h408q11 0 11 -11z" />
    <glyph glyph-name="emdash" unicode="&#x2014;" horiz-adv-x="597" 
d="M620 342q0 -11 -10 -11h-573q-11 0 -11 10q0 12 11 12h573q10 0 10 -11z" />
    <glyph glyph-name="quoteleft" unicode="&#x2018;" horiz-adv-x="173" 
d="M133 690q0 -4 -2 -7q-44 -61 -44 -144v-51q0 -10 -11 -10q-10 0 -10 10v51q0 89 48 157q4 4 9 4q10 0 10 -10z" />
    <glyph glyph-name="quoteright" unicode="&#x2019;" horiz-adv-x="173" 
d="M107 639q0 -90 -48 -156q-3 -5 -8 -5q-11 0 -11 10q0 3 2 7q45 63 45 144v51q0 10 10 10t10 -10v-51z" />
    <glyph glyph-name="quotesinglbase" unicode="&#x201a;" horiz-adv-x="265" 
d="M166 12q0 -90 -48 -156q-2 -5 -8 -5q-11 0 -11 10q0 3 2 7q45 63 45 144v51q0 10 10 10t10 -10v-51z" />
    <glyph glyph-name="quotedblleft" unicode="&#x201c;" horiz-adv-x="320" 
d="M133 690q0 -4 -2 -7q-44 -61 -44 -144v-51q0 -10 -11 -10q-10 0 -10 10v51q0 89 48 157q4 4 9 4q10 0 10 -10zM280 690q0 -1 -2 -7q-45 -63 -45 -144v-51q0 -10 -10 -10t-10 10v51q0 89 48 157q3 4 8 4q11 0 11 -10z" />
    <glyph glyph-name="quotedblright" unicode="&#x201d;" horiz-adv-x="320" 
d="M107 639q0 -90 -48 -156q-3 -5 -8 -5q-11 0 -11 10q0 3 2 7q45 63 45 144v51q0 10 10 10t10 -10v-51zM254 639q0 -91 -49 -156q-3 -5 -8 -5q-10 0 -10 10q0 5 2 7q44 61 44 144v51q0 10 11 10q10 0 10 -10v-51z" />
    <glyph glyph-name="quotedblbase" unicode="&#x201e;" horiz-adv-x="381" 
d="M166 12q0 -90 -48 -156q-2 -5 -8 -5q-11 0 -11 10q0 3 2 7q45 63 45 144v51q0 10 10 10t10 -10v-51zM282 12q0 -90 -48 -156q-2 -5 -8 -5q-11 0 -11 10q0 3 2 7q45 63 45 144v51q0 10 10 10t10 -10v-51z" />
    <glyph glyph-name="dagger" unicode="&#x2020;" horiz-adv-x="455" 
d="M389 480q0 -11 -11 -11h-140v-461q0 -11 -11 -11q-10 0 -10 11v461h-140q-11 0 -11 11q0 10 11 10h140v199q0 11 10 11q11 0 11 -11v-199h140q11 0 11 -10z" />
    <glyph glyph-name="daggerdbl" unicode="&#x2021;" horiz-adv-x="455" 
d="M389 217q0 -10 -11 -10h-140v-199q0 -11 -11 -11q-10 0 -10 11v199h-140q-11 0 -11 10q0 11 11 11h140v241h-140q-11 0 -11 11q0 10 11 10h140v199q0 11 10 11q11 0 11 -11v-199h140q11 0 11 -10q0 -11 -11 -11h-140v-241h140q11 0 11 -11z" />
    <glyph glyph-name="bullet" unicode="&#x2022;" horiz-adv-x="393" 
d="M300 337q0 -44 -30.5 -74.5t-73.5 -30.5t-73.5 31t-30.5 74t30.5 73.5t73.5 30.5t73.5 -30.5t30.5 -73.5z" />
    <glyph glyph-name="ellipsis" unicode="&#x2026;" horiz-adv-x="434" 
d="M54 9q0 -12 -11 -12q-10 0 -10 12v42q0 11 10 11q11 0 11 -11v-42zM224 9q0 -12 -11 -12q-10 0 -10 12v42q0 11 11 11q10 0 10 -11v-42zM394 9q0 -12 -10 -12q-11 0 -11 12v42q0 11 11 11q10 0 10 -11v-42z" />
    <glyph glyph-name="perthousand" unicode="&#x2030;" horiz-adv-x="971" 
d="M264 420q0 -39 -27 -67.5t-65 -28.5q-39 0 -66 28.5t-27 67.5v184q0 39 27 67.5t66 28.5q38 0 65 -28.5t27 -67.5v-184zM516 686l-283 -683q-3 -6 -9 -6q-11 0 -11 10q0 1 0.5 2t0.5 2l282 683q3 6 10 6q10 0 10 -10v-4zM243 420v184q0 31 -21 53t-50 22q-30 0 -51 -22
t-21 -53v-184q0 -31 21 -53t51 -22q29 0 50 22t21 53zM657 93q0 -39 -27 -67.5t-66 -28.5q-38 0 -65 28.5t-27 67.5v184q0 39 27 67.5t65 28.5q39 0 66 -28.5t27 -67.5v-184zM892 93q0 -39 -27 -67.5t-65 -28.5q-39 0 -66 28.5t-27 67.5v184q0 39 27 67.5t66 28.5
q38 0 65 -28.5t27 -67.5v-184zM636 93v184q0 31 -21 53t-51 22q-29 0 -50.5 -22t-21.5 -53v-184q0 -31 21.5 -53t50.5 -22q30 0 51 22t21 53zM871 93v184q0 31 -21 53t-50 22q-30 0 -51 -22t-21 -53v-184q0 -31 21 -53t51 -22q29 0 50 22t21 53z" />
    <glyph glyph-name="guilsinglleft" unicode="&#x2039;" horiz-adv-x="408" 
d="M276 81q0 -7 -3 -9q-3 -3 -9 -3q-4 0 -11 7l-181 170q-6 6 -6 17t6 17l181 170q7 7 11 7q6 0 9 -3q3 -2 3 -9q0 -3 -9 -10l-183 -172l183 -172q9 -7 9 -10z" />
    <glyph glyph-name="guilsinglright" unicode="&#x203a;" horiz-adv-x="408" 
d="M342 263q0 -10 -7 -17l-182 -170q-9 -7 -10 -7q-7 0 -9 2q-2 3 -2 10q0 3 7 10l184 172l-184 172q-7 7 -7 10q0 7 2 10q2 2 9 2q1 0 10 -7l182 -170q7 -7 7 -17z" />
    <glyph glyph-name="fraction" unicode="&#x2044;" horiz-adv-x="311" 
d="M305 690q0 -1 -0.5 -2.5t-0.5 -2.5l-276 -681q-3 -7 -10 -7q-11 0 -11 10q0 3 1 5l276 681q3 7 10 7q11 0 11 -10z" />
    <glyph glyph-name="Euro" unicode="&#x20ac;" horiz-adv-x="564" 
d="M498 147q-9 -64 -58 -107t-115 -43h-11q-73 0 -124.5 51.5t-51.5 124.5v89h-61q-11 0 -11 10q0 11 11 11h61v121h-61q-11 0 -11 10t11 10h61v101q0 73 51.5 124t124.5 51h11q66 0 115 -43t58 -107q1 -7 -3.5 -10.5t-10 -1.5t-6.5 9q-8 57 -51.5 94.5t-101.5 37.5h-11
q-64 0 -109.5 -45t-45.5 -109v-101h237q11 0 11 -10t-11 -10h-237v-121h237q11 0 11 -11q0 -10 -11 -10h-237v-89q0 -65 45.5 -110t109.5 -45h11q58 0 101.5 37.5t51.5 94.5q1 7 6.5 9t10 -1.5t3.5 -10.5z" />
    <glyph glyph-name="trademark" unicode="&#x2122;" horiz-adv-x="597" 
d="M236 691q0 -10 -8 -10h-78v-293q0 -8 -9 -8t-9 8v293h-84q-8 0 -8 10q0 9 8 9h180q8 0 8 -9zM521 380q-9 0 -9 8v272l-86 -154q-5 -8 -9 -8h-4q-5 0 -9 8l-84 154v-272q0 -8 -10 -8q-9 0 -9 8v303q0 9 8 9h3q5 0 10 -8l93 -171l93 171q5 8 11 8h3q9 0 9 -9v-303
q0 -8 -10 -8z" />
    <glyph glyph-name="partialdiff" unicode="&#x2202;" horiz-adv-x="467" 
d="M414 142q0 -60 -42.5 -102.5t-102.5 -42.5h-12q-60 0 -102.5 42.5t-42.5 102.5v135q0 60 42.5 102.5t102.5 42.5h12q38 0 71 -19t53 -51v203q0 47 -34.5 85.5t-89.5 38.5h-62q-11 0 -11 11q0 10 11 10h62q62 0 103.5 -42.5t41.5 -102.5v-413zM393 142v135
q0 51 -36.5 87.5t-87.5 36.5h-12q-52 0 -88 -36.5t-36 -87.5v-135q0 -51 36 -87.5t88 -36.5h12q51 0 87.5 36.5t36.5 87.5z" />
    <glyph glyph-name="product" unicode="&#x220f;" horiz-adv-x="724" 
d="M586 -202q0 -11 -11 -11q-10 0 -10 11v878h-405v-878q0 -11 -11 -11q-10 0 -10 11v889q0 10 11 10h425q11 0 11 -10v-889z" />
    <glyph glyph-name="summation" unicode="&#x2211;" horiz-adv-x="489" 
d="M482 -200q0 -10 -10 -10h-435q-11 0 -11 11v6q0 6 5 14l257 422l-257 423q-5 8 -5 14v6q0 11 11 11h435q10 0 10 -10q0 -11 -10 -11h-420l247 -408q12 -18 12 -25t-11 -25l-248 -407h420q10 0 10 -11z" />
    <glyph glyph-name="minus" unicode="&#x2212;" horiz-adv-x="663" 
d="M570 244q0 -10 -11 -10h-456q-11 0 -11 10t11 10h456q11 0 11 -10z" />
    <glyph glyph-name="radical" unicode="&#x221a;" horiz-adv-x="468" 
d="M448 686l-236 -678q-3 -11 -14 -11t-15 10l-123 288q0 1 -0.5 2.5t-0.5 2.5q0 10 11 10q6 0 9 -7l118 -277l231 667q3 7 10 7q10 0 10 -10v-4z" />
    <glyph glyph-name="infinity" unicode="&#x221e;" horiz-adv-x="703" 
d="M643 350q0 -51 -31 -87t-81 -36q-45 0 -94 32t-86 75q-37 -43 -86 -75t-94 -32q-50 0 -81 36t-31 87q0 52 31 87.5t81 35.5q45 0 94 -31.5t86 -74.5q37 43 86 74.5t94 31.5q50 0 81 -35.5t31 -87.5zM337 350q-89 103 -166 103q-41 0 -66 -29.5t-25 -73.5t25 -73t66 -29
t85.5 30.5t80.5 71.5zM622 350q0 44 -25 73.5t-66 29.5q-33 0 -71 -22.5t-59 -42t-36 -38.5q89 -102 166 -102q41 0 66 29t25 73z" />
    <glyph glyph-name="integral" unicode="&#x222b;" horiz-adv-x="265" 
d="M222 679q-39 0 -64 -26.5t-25 -65.5v-687q0 -48 -31 -80.5t-78 -32.5q-7 0 -10 5.5t0 10.5t10 5q38 0 63 26.5t25 65.5v687q0 48 31 80.5t79 32.5q10 0 10 -10.5t-10 -10.5z" />
    <glyph glyph-name="approxequal" unicode="&#x2248;" horiz-adv-x="512" 
d="M406 547q-39 -27 -83 -27q-26 0 -74 15.5t-66 15.5q-33 0 -62 -31q-6 -6 -13 -5t-8.5 6.5t3.5 12.5q35 38 82 38q22 0 69 -15.5t70 -15.5q40 0 69 24q6 5 12.5 2.5t7 -8.5t-6.5 -12zM406 398q-39 -27 -83 -27q-26 0 -74 15.5t-66 15.5q-33 0 -62 -31q-6 -6 -13 -5
t-8.5 6.5t3.5 12.5q35 38 82 38q22 0 69 -15.5t70 -15.5q40 0 69 24q6 5 12.5 2.5t7 -8.5t-6.5 -12z" />
    <glyph glyph-name="notequal" unicode="&#x2260;" horiz-adv-x="494" 
d="M441 272q0 -10 -11 -10h-227l-59 -92q-3 -5 -8 -5q-2 0 -6 2q-5 3 -5 9q0 2 2 6l51 80h-114q-11 0 -11 10q0 11 11 11h128l78 121h-206q-11 0 -11 10t11 10h220l65 103q3 5 9 5q2 0 6 -2q5 -3 5 -9q0 -2 -2 -6l-58 -91h121q11 0 11 -10t-11 -10h-135l-78 -121h213
q11 0 11 -11z" />
    <glyph glyph-name="lessequal" unicode="&#x2264;" horiz-adv-x="498" 
d="M358 163q0 -13 -12 -13q-4 0 -7 3l-222 149q-10 8 -10 20t10 20l222 150q4 2 7 2q12 0 12 -13q0 -4 -5 -9l-222 -150l222 -150q5 -3 5 -9zM399 10q0 -11 -10 -11h-279q-11 0 -11 11q0 10 11 10h279q10 0 10 -10z" />
    <glyph glyph-name="greaterequal" unicode="&#x2265;" horiz-adv-x="498" 
d="M391 322q0 -12 -10 -20l-221 -149q-4 -3 -8 -3q-11 0 -11 13q0 6 4 9l223 150l-223 150q-4 4 -4 9q0 13 11 13q2 0 8 -2l221 -150q10 -8 10 -20zM399 10q0 -11 -10 -11h-279q-11 0 -11 11q0 10 11 10h279q10 0 10 -10z" />
    <glyph glyph-name="lozenge" unicode="&#x25ca;" horiz-adv-x="600" 
d="M547 244q0 -8 -6 -14l-225 -227q-6 -6 -16 -6q-5 0 -14 6l-227 227q-6 6 -6 14q0 6 6 15l227 227q7 5 14 5q11 0 16 -5l225 -227q6 -6 6 -15zM525 244l-225 225l-224 -225l224 -225z" />
    <glyph glyph-name="fi" unicode="&#xfb01;" horiz-adv-x="520" 
d="M407 8q0 -11 -10 -11q-11 0 -11 11v460h-239v-461q0 -10 -10 -10q-11 0 -11 10v461h-56q-11 0 -11 11q0 10 11 10h56v95q0 49 32.5 82.5t81.5 33.5q11 0 11 -10q0 -11 -11 -11q-40 0 -66.5 -27.5t-26.5 -67.5v-95h250q10 0 10 -10v-471zM407 646q0 -11 -10 -11
q-11 0 -11 11v42q0 12 11 12q3 0 6.5 -3.5t3.5 -8.5v-42z" />
    <glyph glyph-name="fl" unicode="&#xfb02;" horiz-adv-x="558" 
d="M505 7q0 -10 -10 -10q-49 0 -82.5 34t-33.5 83v562h-139q-40 0 -66.5 -27.5t-26.5 -67.5v-113h87q11 0 11 -10q0 -11 -11 -11h-87v-440q0 -10 -10 -10q-11 0 -11 10v440h-56q-11 0 -11 11q0 10 11 10h56v113q0 49 32.5 82.5t81.5 33.5h149q10 0 10 -11v-572q0 -40 28 -68
t68 -28q10 0 10 -11z" />
    <glyph glyph-name="DC3" horiz-adv-x="15470" 
 />
    <glyph glyph-name="DC4" horiz-adv-x="636" 
 />
    <glyph glyph-name="RS" horiz-adv-x="705" 
d="M600 244q0 -4 -3 -7l-233 -237q-3 -3 -7 -3q-11 0 -11 11q0 4 3 7l216 219h-448q-11 0 -11 10v236q0 11 10 11q11 0 11 -11v-226h438l-216 219q-3 3 -3 7q0 11 11 11q4 0 7 -3l233 -237q3 -3 3 -7z" />
    <glyph glyph-name="US" horiz-adv-x="705" 
d="M600 244q0 -4 -3 -7l-233 -237q-3 -3 -7 -3q-11 0 -11 11q0 4 3 7l216 219h-448q-11 0 -11 10t11 10h448l-216 219q-3 3 -3 7q0 11 11 11q4 0 7 -3l233 -237q3 -3 3 -7z" />
    <glyph glyph-name="nbspace" horiz-adv-x="382" 
 />
    <glyph glyph-name="apple" horiz-adv-x="535" 
d="M422 142q0 -60 -42 -102.5t-102 -42.5h-20q-60 0 -102.5 42.5t-42.5 102.5q0 7 5 9.5t10.5 0t5.5 -9.5q0 -51 36 -87.5t88 -36.5h20q51 0 87.5 36.5t36.5 87.5v91q0 79 -32 109.5t-97 30.5h-23q-11 0 -15 7t2 18l161 278h-249v-91q0 -10 -10.5 -10t-10.5 10v102
q0 4 3.5 7t7.5 3h269q12 0 15 -8.5t-2 -16.5l-161 -278h13q77 0 113 -36t36 -125v-91z" />
  </font>
</defs>
</svg>
